<?xml version="1.0" standalone="no"?>
<!DOCTYPE svg PUBLIC "-//W3C//DTD SVG 20010904//EN"
 "http://www.w3.org/TR/2001/REC-SVG-20010904/DTD/svg10.dtd">
<svg version="1.0" xmlns="http://www.w3.org/2000/svg"
 width="872.000000pt" height="985.000000pt" viewBox="0 0 872.000000 985.000000"
 preserveAspectRatio="xMidYMid meet">
<g transform="translate(0.000000,985.000000) scale(0.100000,-0.100000)"
fill="#000000" stroke="none">
<path d="M1200 6740 c0 -2481 3 -3110 13 -3111 6 -1 15 -1 19 0 5 0 8 -4 8
-10 0 -5 4 -7 10 -4 5 3 10 1 10 -5 0 -6 4 -8 10 -5 5 3 10 1 10 -5 0 -6 4 -8
10 -5 5 3 10 1 10 -5 0 -6 5 -8 10 -5 6 3 10 1 10 -5 0 -6 4 -8 10 -5 5 3 10
1 10 -5 0 -6 4 -8 10 -5 5 3 10 1 10 -5 0 -6 4 -8 10 -5 5 3 10 1 10 -5 0 -6
5 -8 10 -5 6 3 10 1 10 -5 0 -6 4 -9 9 -5 5 3 17 -2 25 -11 9 -8 16 -13 16
-10 0 7 282 -133 290 -143 5 -7 70 -36 82 -36 3 0 9 -3 13 -7 4 -3 -49 -25
-117 -47 -183 -61 -272 -92 -278 -98 -3 -2 -7 -124 -10 -270 l-5 -265 -105
-39 c-58 -22 -114 -43 -125 -48 -11 -5 -38 -16 -60 -24 -240 -96 -744 -339
-974 -471 -63 -36 -119 -66 -123 -66 -4 0 -8 -4 -8 -9 0 -5 -8 -11 -17 -13
-11 -2 12 -18 57 -39 41 -20 93 -48 114 -62 21 -15 44 -27 51 -27 6 0 74 -34
150 -75 76 -41 141 -75 145 -75 4 0 13 -6 19 -14 9 -10 -11 -48 -91 -175 -224
-352 -438 -705 -438 -721 0 -5 24 5 53 24 152 96 686 365 912 459 96 41 352
141 500 196 104 39 318 107 540 171 l230 66 3 262 2 263 27 10 c15 6 88 24
163 40 74 16 162 36 195 44 156 36 434 79 835 130 l105 13 360 -177 c198 -98
376 -184 395 -190 34 -13 41 -10 415 175 420 207 382 195 555 173 47 -6 92
-12 100 -13 8 -2 38 -6 65 -10 277 -40 460 -69 510 -80 33 -7 96 -21 140 -30
174 -37 360 -79 365 -83 3 -3 7 -124 10 -270 l5 -266 155 -44 c251 -71 542
-167 740 -243 102 -40 214 -83 250 -97 218 -82 884 -413 1044 -518 14 -9 26
-14 26 -11 0 4 -21 42 -47 86 -27 45 -52 88 -58 98 -5 10 -40 65 -76 122 -37
58 -91 144 -120 192 -30 47 -96 152 -146 233 -51 80 -93 152 -93 158 0 7 33
29 73 50 39 21 131 68 202 106 72 38 160 84 198 102 37 18 66 38 64 44 -5 14
-151 97 -512 287 -159 84 -605 278 -822 358 l-63 22 0 263 c0 198 -3 265 -12
272 -13 10 -212 79 -328 114 -36 11 -72 22 -80 25 -9 4 -1 11 24 19 21 8 42
18 45 23 7 12 371 194 371 186 0 -3 7 2 16 10 8 9 20 14 25 11 5 -4 9 -1 9 5
0 6 5 8 10 5 6 -3 10 -1 10 5 0 6 5 8 10 5 6 -3 10 -1 10 5 0 6 5 8 10 5 6 -3
10 -2 10 3 0 5 6 9 14 9 8 0 28 5 45 13 l31 12 0 3109 0 3109 -3170 0 -3170 0
0 -3110z m6230 -18 l0 -3019 -342 -167 c-334 -163 -344 -168 -383 -158 -22 5
-94 24 -160 42 -175 46 -222 57 -405 95 -91 18 -187 38 -215 44 -109 24 -310
52 -539 77 -133 14 -270 29 -306 35 -265 39 -1134 38 -1430 -1 -41 -5 -165
-19 -275 -31 -179 -18 -356 -42 -500 -68 -97 -17 -454 -92 -507 -106 -29 -8
-127 -33 -218 -56 l-165 -41 -342 168 -343 168 0 3018 0 3018 3065 0 3065 0 0
-3018z m-2786 -3114 c-5 -8 21 -10 104 -4 78 4 113 3 118 -5 5 -8 30 -9 80 -5
54 5 74 4 74 -5 0 -8 15 -10 49 -6 64 8 524 -41 571 -60 8 -3 25 -5 38 -4 12
1 22 -2 22 -8 0 -6 12 -8 29 -5 16 4 32 1 35 -5 4 -6 18 -8 31 -5 12 3 26 1
30 -5 3 -6 17 -8 31 -5 13 3 24 2 24 -3 0 -6 19 -10 43 -11 53 0 301 -51 305
-62 2 -4 11 -6 21 -3 10 3 22 0 25 -6 4 -5 13 -8 21 -4 8 3 15 0 15 -7 0 -8 9
-10 25 -6 15 4 25 2 25 -4 0 -7 8 -9 20 -5 12 4 20 2 20 -5 0 -7 6 -10 14 -7
8 3 59 -6 113 -20 54 -14 108 -28 121 -30 12 -3 22 -9 22 -14 0 -5 7 -6 15 -3
8 4 15 1 15 -5 0 -6 6 -8 14 -5 8 3 17 1 20 -5 4 -6 13 -8 21 -4 8 3 15 0 15
-7 0 -7 8 -9 20 -5 11 4 20 2 20 -4 0 -6 7 -8 15 -5 8 4 15 1 15 -6 0 -6 4 -9
9 -5 11 6 175 -44 179 -56 2 -4 10 -5 18 -2 8 3 14 0 14 -6 0 -6 7 -8 15 -5 8
4 15 1 15 -6 0 -6 4 -9 8 -6 5 3 39 -5 75 -16 l67 -22 0 -512 c0 -282 -4 -515
-9 -518 -11 -7 -161 43 -161 55 0 4 -7 6 -15 3 -8 -4 -15 -1 -15 5 0 6 -7 8
-15 5 -8 -4 -15 -2 -15 2 0 5 -14 10 -31 10 -17 1 -34 5 -38 10 -3 5 -14 10
-25 11 -37 3 -175 47 -171 54 3 4 -4 5 -15 2 -11 -3 -20 0 -20 6 0 5 -7 8 -15
5 -8 -4 -15 -2 -15 4 0 6 -9 8 -20 5 -11 -3 -20 -1 -20 5 0 6 -9 8 -20 5 -12
-3 -20 0 -20 7 0 7 -8 9 -20 5 -12 -4 -20 -2 -20 5 0 6 -4 9 -9 5 -11 -6 -265
55 -269 66 -2 4 -12 5 -22 2 -11 -3 -20 0 -20 6 0 7 -9 9 -25 5 -16 -4 -25 -2
-25 5 0 7 -9 9 -25 5 -14 -3 -25 -2 -25 3 0 6 -12 10 -27 9 -38 0 -337 55
-341 64 -1 3 -16 4 -32 2 -18 -2 -30 0 -30 7 0 6 -11 8 -30 5 -20 -4 -30 -2
-30 5 0 8 -11 10 -35 5 -25 -4 -35 -3 -35 6 0 9 -10 11 -31 6 -18 -3 -38 -1
-45 5 -8 6 -21 8 -30 5 -8 -3 -73 1 -142 9 -317 36 -557 49 -952 49 -390 1
-577 -8 -890 -41 -85 -9 -179 -16 -207 -16 -29 0 -53 -4 -53 -9 0 -6 -17 -7
-40 -3 -28 5 -40 3 -40 -5 0 -9 -11 -10 -35 -6 -24 5 -35 3 -35 -5 0 -7 -10
-9 -30 -6 -19 4 -30 2 -30 -4 0 -7 -12 -9 -30 -7 -16 2 -31 1 -32 -2 -4 -11
-295 -63 -307 -55 -6 3 -11 1 -11 -5 0 -8 -9 -10 -25 -6 -16 4 -25 2 -25 -5 0
-7 -9 -9 -25 -5 -16 4 -25 2 -25 -5 0 -6 -9 -9 -20 -6 -11 3 -20 1 -20 -5 0
-6 -11 -8 -25 -6 -14 3 -25 1 -25 -5 0 -5 -9 -7 -20 -4 -11 3 -20 1 -20 -3 0
-10 -185 -54 -217 -52 -13 1 -23 -3 -23 -9 0 -6 -9 -9 -20 -6 -11 3 -20 1 -20
-4 0 -4 -7 -6 -15 -3 -8 4 -15 1 -15 -6 0 -7 -8 -10 -20 -7 -10 3 -20 2 -22
-2 -5 -11 -247 -83 -258 -76 -5 3 -10 1 -10 -5 0 -6 -5 -8 -11 -4 -6 3 -14 2
-18 -3 -3 -6 -55 -27 -116 -47 -60 -21 -116 -40 -123 -43 -10 -4 -12 101 -10
518 l3 522 53 18 c29 10 59 16 67 12 8 -3 15 0 15 7 0 6 5 8 11 4 6 -3 15 -1
19 6 4 6 19 13 34 13 14 1 26 5 26 9 0 11 160 58 176 51 8 -3 14 0 14 6 0 6 7
8 15 5 8 -4 15 -1 15 6 0 7 8 9 20 5 12 -4 20 -2 20 5 0 7 8 9 20 5 11 -4 20
-2 20 4 0 6 7 8 15 5 8 -4 15 -1 15 6 0 7 6 10 14 7 8 -3 16 -2 18 2 4 11 197
61 213 55 7 -3 16 -1 19 5 4 6 13 8 20 5 8 -3 17 0 21 6 4 6 15 8 26 5 11 -4
19 -2 19 5 0 7 8 9 20 5 12 -4 20 -2 20 5 0 6 8 10 18 8 9 -1 22 1 28 5 21 13
312 67 328 61 9 -4 16 -1 16 6 0 8 10 9 30 5 20 -4 30 -3 30 5 0 8 10 9 29 5
18 -4 32 -2 36 5 4 7 18 9 30 6 13 -3 27 -1 30 5 4 5 17 9 28 7 12 -1 27 0 32
4 28 17 503 69 563 61 25 -3 47 -1 56 6 9 7 33 9 70 5 37 -5 60 -3 70 5 11 9
41 10 109 5 62 -4 101 -3 113 4 28 16 578 16 568 0z m-3212 -1339 l3 -290 245
-84 c135 -46 285 -99 334 -118 78 -30 85 -35 62 -41 -15 -4 -31 -4 -36 -1 -4
3 -10 1 -12 -4 -4 -11 -204 -73 -235 -73 -13 0 -23 -5 -23 -10 0 -5 -5 -6 -11
-2 -6 3 -15 1 -19 -6 -5 -8 -22 -13 -39 -13 -17 0 -31 -5 -31 -10 0 -5 -7 -7
-15 -3 -8 3 -15 1 -15 -3 0 -9 -152 -66 -175 -66 -5 0 -13 -4 -16 -9 -4 -5
-18 -8 -33 -8 -14 0 -26 -5 -26 -10 0 -5 -5 -6 -11 -2 -6 3 -14 2 -18 -4 -9
-14 -182 -83 -192 -76 -5 3 -9 1 -9 -5 0 -6 -7 -8 -15 -5 -8 4 -15 1 -15 -6 0
-6 -4 -9 -9 -6 -5 4 -11 2 -13 -3 -1 -5 -12 -11 -23 -13 -11 -1 -22 -6 -25
-10 -10 -12 -122 -58 -131 -52 -5 3 -9 0 -9 -6 0 -6 -4 -8 -10 -5 -5 3 -10 1
-10 -5 0 -6 -4 -9 -9 -5 -5 3 -12 1 -16 -5 -4 -6 -11 -8 -16 -5 -5 4 -9 1 -9
-5 0 -6 -4 -8 -10 -5 -5 3 -10 2 -10 -3 0 -10 -130 -68 -142 -64 -5 1 -8 -3
-8 -9 0 -5 -4 -7 -10 -4 -5 3 -10 1 -10 -4 0 -6 -4 -10 -8 -8 -5 1 -43 -17
-84 -41 -41 -23 -86 -45 -99 -47 -13 -3 -25 -9 -27 -15 -2 -6 -8 -8 -13 -4 -5
3 -9 0 -9 -6 0 -6 -4 -9 -9 -6 -5 4 -11 2 -13 -3 -1 -5 -10 -11 -18 -13 -8 -2
-17 -5 -20 -8 -14 -16 -98 -58 -104 -53 -3 3 -6 1 -6 -6 0 -7 -4 -9 -10 -6 -5
3 -10 1 -10 -5 0 -6 -5 -8 -10 -5 -6 3 -10 1 -10 -6 0 -7 -3 -10 -6 -7 -5 6
76 145 171 293 28 44 106 165 173 268 103 159 120 191 111 208 -5 11 -14 17
-20 14 -5 -4 -9 -1 -9 5 0 6 -4 8 -10 5 -6 -3 -10 -2 -10 3 0 5 -6 9 -13 9
-16 0 -159 82 -169 97 -4 6 -8 7 -8 3 0 -11 -140 65 -140 76 0 4 -5 5 -10 2
-6 -3 -10 -1 -10 5 0 6 -4 8 -10 5 -5 -3 -10 -1 -10 5 0 6 -5 8 -10 5 -6 -3
-10 -1 -10 5 0 6 -4 9 -9 5 -21 -12 -19 14 2 27 49 33 406 214 559 284 242
111 606 261 640 263 16 1 18 -21 20 -290z m6233 158 c257 -106 780 -360 868
-422 18 -13 17 -14 -12 -30 -17 -9 -36 -13 -41 -10 -6 3 -10 1 -10 -4 0 -10
-147 -91 -179 -100 -8 -2 -21 -9 -29 -17 -7 -8 -18 -12 -23 -9 -5 4 -9 2 -9
-2 0 -5 -30 -25 -67 -44 -38 -18 -70 -37 -71 -42 -2 -4 -7 -5 -12 -2 -4 3 -10
-2 -14 -10 -3 -8 13 -42 38 -77 23 -35 107 -164 185 -288 79 -124 158 -248
176 -275 44 -69 68 -116 61 -123 -3 -3 -6 0 -6 7 0 7 -4 9 -10 6 -5 -3 -10 -1
-10 6 0 7 -3 10 -6 7 -3 -3 -38 12 -77 35 -105 59 -351 181 -359 179 -5 -1 -8
3 -8 10 0 6 -3 9 -6 5 -4 -3 -38 10 -78 30 -39 21 -74 36 -78 35 -5 -1 -8 2
-8 6 0 4 -10 8 -22 9 -11 1 -25 8 -29 15 -5 7 -9 10 -9 6 0 -4 -26 4 -57 18
-100 45 -423 171 -548 214 -65 22 -122 44 -125 48 -3 4 -12 7 -20 8 -28 2
-365 107 -368 114 -2 5 -12 6 -22 3 -11 -3 -20 -1 -20 3 0 12 149 67 433 162
l227 76 0 286 c0 158 2 289 5 292 6 6 156 -49 340 -125z m-2765 55 c34 -8 35
-9 10 -17 -14 -5 -28 -8 -32 -7 -5 1 -8 -3 -8 -9 0 -5 -4 -7 -10 -4 -5 3 -10
1 -10 -6 0 -7 -3 -10 -6 -7 -7 7 -84 -26 -93 -40 -9 -14 -352 -185 -378 -188
-13 -1 -23 2 -23 7 0 6 -4 7 -10 4 -5 -3 -10 -1 -10 5 0 6 -4 8 -10 5 -5 -3
-10 -1 -10 5 0 6 -4 8 -10 5 -5 -3 -10 -1 -10 5 0 6 -4 8 -10 5 -5 -3 -10 -1
-10 5 0 6 -4 8 -10 5 -5 -3 -10 -1 -10 5 0 6 -4 8 -10 5 -5 -3 -10 -1 -10 5 0
6 -4 8 -10 5 -5 -3 -10 -1 -10 5 0 6 -4 8 -10 5 -5 -3 -10 -2 -10 3 0 5 -6 9
-12 9 -20 0 -198 85 -198 94 0 8 -40 24 -52 21 -5 -1 -8 3 -8 9 0 5 -4 7 -10
4 -5 -3 -10 -1 -10 5 0 6 -4 8 -10 5 -5 -3 -10 -1 -10 5 0 6 -4 8 -10 5 -5 -3
-10 -1 -10 5 0 6 -4 9 -9 6 -4 -3 -17 1 -27 9 -23 17 -32 16 146 25 173 10
880 3 930 -8z m-2722 -459 c3 -153 1 -181 -12 -192 -10 -9 -16 -10 -16 -3 0 6
-7 9 -15 6 -8 -4 -15 -1 -15 6 0 6 -4 9 -9 5 -5 -3 -12 -1 -16 5 -4 6 -11 8
-16 5 -5 -4 -9 -2 -9 4 0 6 -7 8 -15 5 -8 -4 -15 -2 -15 4 0 5 -6 9 -12 8 -21
-2 -148 45 -148 55 0 4 -7 6 -15 3 -8 -4 -15 -1 -15 5 0 6 -7 8 -15 5 -8 -4
-15 -1 -15 6 0 6 -4 8 -10 5 -5 -3 -10 -2 -10 3 0 6 -9 8 -20 5 -11 -3 -20 -1
-20 4 0 5 -6 10 -12 10 -22 0 -158 44 -163 52 -7 12 556 184 580 177 6 -2 11
-74 13 -183z m4553 142 c198 -55 421 -129 421 -140 -1 -11 -131 -57 -143 -49
-5 3 -9 0 -9 -6 0 -7 -7 -10 -15 -6 -8 3 -15 1 -15 -5 0 -6 -7 -9 -15 -5 -8 3
-15 1 -15 -5 0 -6 -6 -9 -14 -6 -8 3 -16 2 -18 -2 -5 -12 -169 -72 -179 -65
-5 3 -9 0 -9 -6 0 -6 -4 -9 -9 -5 -5 3 -12 1 -16 -5 -4 -6 -11 -8 -16 -5 -5 4
-9 1 -9 -5 0 -7 -7 -10 -15 -6 -8 3 -15 2 -15 -3 0 -11 -35 -20 -46 -12 -14 9
-11 371 2 371 6 0 66 -16 135 -35z"/>
<path d="M5227 9019 c-42 -10 -110 -43 -144 -69 -17 -13 -34 -16 -68 -12 -87
9 -199 -61 -225 -141 -10 -33 -16 -38 -34 -33 -107 29 -241 31 -331 5 -22 -6
-57 -29 -79 -50 -21 -22 -40 -38 -40 -37 -43 78 -106 134 -180 158 -55 18
-187 8 -256 -20 l-55 -22 -15 23 c-67 104 -152 147 -252 129 -36 -7 -51 -4
-103 23 -109 55 -259 48 -385 -19 -61 -32 -84 -47 -92 -59 -4 -5 -17 -3 -34 5
-72 39 -219 -14 -328 -118 -33 -32 -59 -59 -59 -62 0 -3 -8 -22 -18 -43 -31
-60 -39 -123 -24 -181 8 -28 10 -52 5 -54 -14 -5 -84 -62 -76 -62 4 0 2 -9 -4
-20 -9 -17 -21 -20 -83 -20 -102 0 -160 -23 -227 -90 -64 -64 -120 -130 -111
-130 3 0 -3 -7 -13 -15 -11 -8 -16 -15 -12 -15 4 0 -1 -13 -11 -30 -9 -16 -21
-30 -26 -30 -4 0 -5 -4 -2 -10 3 -5 1 -10 -5 -10 -6 0 -8 -4 -5 -10 3 -5 2
-10 -2 -10 -5 0 -10 -10 -10 -22 -1 -13 -7 -24 -13 -26 -5 -2 -8 -7 -5 -12 2
-4 -7 -40 -20 -81 -14 -40 -25 -81 -25 -91 0 -10 -4 -18 -10 -18 -5 0 -7 -13
-4 -30 4 -18 2 -30 -4 -30 -7 0 -9 -13 -5 -35 4 -23 2 -35 -6 -35 -7 0 -11
-35 -11 -110 0 -74 4 -110 11 -110 7 0 9 -10 7 -25 -3 -14 -1 -25 5 -25 5 0 7
-9 4 -20 -3 -10 -2 -20 2 -22 3 -2 22 -34 42 -73 26 -53 50 -82 95 -118 59
-49 241 -144 322 -169 25 -8 42 -19 42 -28 0 -8 -14 -84 -32 -167 -28 -138
-33 -153 -52 -153 -64 0 -126 -85 -128 -175 -1 -84 39 -118 237 -203 305 -131
579 -203 885 -233 262 -25 671 15 793 78 84 43 92 211 13 269 l-27 20 15 139
c31 283 92 895 103 1025 2 30 9 61 14 70 8 12 9 10 8 -10 -1 -14 1 -32 4 -40
4 -8 8 -24 10 -35 1 -11 6 -26 10 -32 5 -7 5 -13 0 -13 -4 0 -3 -4 2 -8 6 -4
23 -24 38 -45 16 -21 44 -48 63 -60 18 -12 34 -29 34 -37 0 -9 8 -32 18 -52
20 -39 20 -44 -2 -103 -8 -22 -15 -59 -16 -82 0 -32 -6 -46 -25 -61 -13 -11
-21 -22 -18 -26 3 -3 2 -6 -3 -6 -14 0 -8 -98 6 -115 7 -8 9 -15 4 -15 -5 0
10 -10 32 -21 57 -30 100 -20 148 31 20 22 45 40 55 40 28 0 96 55 111 89 16
39 6 90 -21 109 -16 11 -18 17 -8 28 14 17 38 2 37 -24 0 -9 11 -71 25 -137
14 -66 28 -136 31 -155 3 -19 8 -46 12 -60 3 -14 6 -32 6 -40 0 -8 2 -22 6
-30 3 -8 7 -22 9 -30 1 -8 5 -26 8 -40 2 -14 11 -56 20 -93 8 -38 17 -85 20
-105 3 -20 7 -46 9 -58 2 -11 6 -26 10 -32 3 -5 -5 -24 -19 -40 -14 -17 -32
-47 -41 -67 -13 -33 -13 -42 1 -93 20 -68 57 -105 122 -121 74 -19 342 -25
493 -12 130 12 442 73 525 104 22 8 86 31 142 51 168 59 426 188 570 283 64
42 98 94 94 142 -8 89 -78 179 -136 173 -30 -3 -31 -2 -64 100 -19 57 -35 112
-37 123 -1 11 -3 21 -4 23 -2 1 -4 7 -5 12 -1 6 -4 12 -5 15 -1 3 -3 8 -5 13
-1 4 -5 14 -8 22 -7 17 -47 131 -47 136 0 1 64 34 143 72 158 77 245 141 294
217 18 28 37 55 41 60 5 6 7 16 4 23 -2 6 1 12 7 12 6 0 8 6 5 14 -3 8 -1 17
4 20 5 3 7 17 4 31 -2 15 0 25 7 25 15 0 15 186 0 196 -6 4 -8 20 -5 39 4 20
2 36 -5 40 -6 4 -8 18 -5 31 4 14 2 24 -4 24 -6 0 -10 8 -9 18 1 9 -3 29 -9
43 -13 33 -35 110 -35 127 0 6 -5 12 -10 12 -5 0 -7 7 -3 15 3 8 1 15 -5 15
-6 0 -7 5 -4 10 3 6 1 10 -5 10 -6 0 -9 4 -6 9 4 5 2 11 -2 13 -5 1 -23 30
-42 62 -18 33 -53 83 -77 113 -24 29 -43 56 -43 61 0 12 -97 82 -136 98 -108
45 -245 20 -351 -65 -52 -42 -63 -48 -74 -35 -14 17 -9 24 18 28 10 2 19 13
21 24 2 12 7 22 11 22 4 0 8 6 9 13 1 6 4 35 8 63 12 100 -58 177 -166 181
-38 1 -55 5 -55 15 0 14 -2 17 -42 67 -52 64 -142 87 -221 56 -38 -16 -40 -15
-108 19 -38 19 -89 40 -114 45 -54 12 -150 12 -203 0z m246 -120 c26 -12 47
-29 47 -36 0 -7 7 -13 15 -13 9 0 25 -16 37 -37 20 -33 23 -34 32 -18 29 49
58 69 97 70 21 0 39 -4 39 -9 0 -5 3 -6 6 -3 14 14 43 -16 59 -60 25 -71 37
-93 47 -87 4 3 8 0 8 -5 0 -16 29 -13 46 4 9 8 31 15 49 15 39 0 75 -37 75
-78 0 -24 -35 -92 -48 -92 -4 0 -18 -9 -31 -19 l-23 -18 31 -59 c58 -113 60
-199 6 -269 -33 -44 -32 -71 4 -101 42 -35 65 -101 59 -169 -5 -62 -30 -98
-85 -121 -43 -18 -135 -18 -180 1 -49 20 -50 20 -58 -22 -9 -50 -41 -110 -64
-123 -79 -42 -181 69 -150 163 7 20 18 42 26 48 7 6 13 25 13 40 0 23 -6 32
-27 39 -89 31 -114 64 -117 151 -2 64 -9 89 -27 89 -5 0 -35 -26 -67 -57 -65
-66 -141 -108 -224 -124 -73 -15 -134 -5 -204 32 -31 16 -59 29 -63 29 -3 0
-7 -24 -8 -52 -3 -64 -26 -98 -81 -118 l-41 -15 29 -17 c21 -12 30 -26 35 -57
9 -53 1 -73 -35 -95 -31 -18 -83 -15 -95 5 -7 11 -35 12 -34 2 2 -16 -14 -53
-22 -53 -5 0 -9 -6 -9 -13 0 -8 -9 -22 -20 -32 -25 -23 -25 -32 -1 -40 66 -21
87 -167 30 -215 -13 -12 -18 -24 -13 -32 5 -7 9 -19 10 -26 2 -8 6 -21 9 -30
10 -24 6 -137 -5 -137 -1 0 -3 -11 -5 -25 -1 -14 6 -39 16 -56 11 -17 19 -38
19 -47 0 -23 -30 -37 -53 -25 -14 7 -17 7 -13 -1 5 -7 -2 -11 -17 -11 -25 0
-43 -15 -62 -53 -16 -32 -41 -43 -59 -28 -22 19 -20 35 11 71 21 25 27 44 29
88 3 66 7 85 27 134 11 27 12 39 4 47 -7 7 -11 40 -9 80 2 68 1 69 -26 74 -43
9 -118 95 -136 158 -30 99 -16 205 31 242 63 50 68 139 12 230 -35 57 -47 120
-31 166 10 28 9 30 -21 40 -49 17 -67 40 -67 82 0 44 35 79 81 79 26 0 27 2
23 33 -3 18 1 47 9 67 19 44 84 120 103 120 8 0 14 4 14 10 0 5 24 22 53 37
45 23 64 27 143 26 82 0 96 -2 140 -28 27 -16 51 -32 54 -36 10 -14 63 39 54
53 -12 18 -8 92 5 96 6 2 11 10 11 17 0 14 50 48 88 60 15 4 38 -1 67 -15 l45
-22 23 26 c14 14 28 26 32 26 4 0 14 9 24 21 47 59 210 74 304 28z m-2107 -10
c31 -12 73 -36 93 -54 l36 -33 28 24 c37 32 98 32 144 2 18 -13 33 -28 33 -35
0 -6 5 -13 12 -15 7 -3 15 -28 18 -58 7 -76 24 -83 92 -38 73 49 117 61 204
56 60 -4 81 -10 123 -37 61 -39 91 -85 91 -137 0 -45 -28 -97 -62 -115 -35
-19 -78 -56 -71 -63 4 -3 0 -6 -7 -6 -7 0 -11 -2 -8 -5 3 -4 2 -24 -3 -46 -12
-50 4 -112 36 -147 13 -14 28 -44 34 -68 6 -23 16 -55 23 -71 6 -15 12 -31 12
-34 1 -3 16 -18 34 -33 25 -22 32 -36 32 -63 0 -48 -16 -72 -57 -89 -79 -34
-123 10 -126 128 -1 32 -5 58 -9 58 -5 0 -17 -9 -29 -21 -29 -29 -68 -38 -109
-25 -35 11 -48 35 -65 119 l-6 28 -29 -24 c-62 -53 -119 -72 -210 -71 -73 0
-94 4 -150 30 -36 17 -90 52 -119 78 -42 38 -56 45 -67 35 -15 -12 -17 -52 -5
-84 10 -25 -3 -85 -21 -96 -7 -5 -9 -9 -4 -9 19 0 -30 -43 -71 -62 -24 -11
-43 -27 -43 -34 0 -8 13 -28 29 -43 64 -63 60 -162 -8 -208 -50 -34 -87 -30
-127 12 -18 20 -38 54 -44 75 -6 22 -12 40 -14 40 -2 0 -21 -7 -42 -16 -22 -9
-66 -17 -99 -17 -158 -1 -285 102 -285 233 0 54 22 120 39 120 22 0 10 37 -29
89 -22 29 -41 63 -42 75 -5 74 17 119 77 156 l34 21 -21 41 c-28 53 -27 119 2
180 23 51 124 153 140 143 6 -3 10 -1 10 5 0 6 5 8 10 5 6 -3 10 -1 10 5 0 6
4 9 9 6 5 -4 11 -1 13 5 5 16 77 16 115 0 18 -7 41 -26 51 -42 l18 -29 34 51
c34 52 114 113 137 105 7 -3 13 -1 13 4 0 25 127 24 196 -1z m3029 -380 c4 -6
14 -8 22 -5 25 10 87 -30 145 -92 126 -137 210 -337 238 -568 20 -163 -11
-294 -87 -370 -40 -40 -122 -97 -140 -97 -7 0 -13 -4 -13 -9 0 -5 -4 -6 -10
-3 -5 3 -10 1 -10 -5 0 -6 -4 -9 -9 -6 -5 4 -11 2 -13 -3 -4 -12 -103 -61
-123 -61 -14 0 -19 11 -16 38 1 6 -3 12 -10 12 -6 0 -9 7 -6 15 4 8 2 17 -4
20 -5 4 -7 10 -4 15 3 5 1 11 -5 15 -19 12 -10 23 28 35 103 33 205 104 238
165 10 19 22 35 27 35 4 0 5 5 2 10 -3 6 -1 10 6 10 7 0 10 3 7 6 -3 3 1 31 9
62 21 79 19 152 -8 257 -12 50 -22 98 -21 108 0 9 -3 17 -9 17 -5 0 -8 3 -7 8
1 4 -3 17 -10 28 -6 12 -8 24 -5 28 3 3 2 6 -3 6 -5 0 -18 17 -29 37 -46 87
-142 135 -225 113 -67 -18 -189 -148 -215 -229 -7 -24 -30 -24 -30 0 0 8 -4
20 -8 27 -5 6 -5 17 -2 22 3 6 1 10 -5 10 -13 0 -3 43 11 48 5 2 7 8 3 13 -3
5 -2 15 2 21 5 7 8 35 9 63 0 57 5 64 90 145 32 31 111 61 140 54 15 -4 25 -2
25 5 0 14 17 14 25 0z m-4015 -269 c0 -5 6 -7 13 -4 8 3 17 -11 25 -42 8 -28
26 -60 47 -81 l35 -35 -26 -33 c-14 -19 -25 -36 -24 -40 1 -3 -1 -11 -3 -18
-3 -6 -6 0 -6 15 -1 22 -10 32 -41 48 -79 40 -176 14 -229 -62 -16 -24 -36
-50 -43 -58 -7 -9 -15 -25 -16 -35 -2 -11 -8 -21 -12 -23 -5 -2 -6 -10 -3 -18
3 -8 1 -14 -3 -14 -5 0 -9 -10 -10 -22 -1 -13 -8 -56 -18 -96 -20 -93 -21
-191 0 -267 9 -33 16 -66 17 -72 0 -7 5 -13 10 -13 6 0 7 -3 4 -6 -11 -12 108
-121 161 -148 27 -14 71 -30 97 -37 40 -10 46 -15 41 -33 -3 -12 -11 -45 -18
-73 -7 -29 -15 -53 -19 -53 -32 0 -244 104 -275 135 -12 12 -25 21 -27 19 -8
-9 -80 80 -98 121 -49 111 -45 324 11 510 42 141 119 284 184 343 20 18 36 36
36 40 0 15 78 52 94 46 9 -3 16 -1 16 5 0 6 17 11 40 11 22 0 40 -4 40 -10z
m4079 -32 c83 -85 145 -339 115 -466 -20 -81 -78 -147 -164 -186 -63 -28 -137
-45 -126 -28 3 6 2 13 -4 17 -6 4 -7 11 -4 17 4 6 2 13 -4 17 -7 4 -13 18 -14
31 -2 14 -6 27 -9 30 -11 9 -49 142 -43 151 3 5 0 9 -6 9 -7 0 -10 7 -6 15 3
8 1 15 -5 15 -6 0 -9 6 -6 14 3 8 3 17 -1 21 -4 4 -7 10 -8 13 0 4 -4 15 -8
25 -5 10 -3 23 3 31 6 7 8 16 4 19 -3 4 -2 7 3 7 5 0 10 10 11 22 1 11 8 25
15 29 7 5 9 9 5 9 -10 0 48 109 66 125 7 6 17 19 23 30 17 31 72 64 105 63 19
-1 40 -12 58 -30z m-1139 -250 c21 -40 66 -88 83 -88 4 0 4 -15 0 -32 -10 -42
-10 -135 0 -170 4 -15 29 -47 55 -72 27 -26 49 -52 50 -59 0 -6 3 -23 7 -37 3
-14 8 -32 10 -40 2 -8 4 -17 6 -20 1 -3 3 -9 4 -15 1 -5 5 -17 8 -25 3 -8 12
-40 21 -70 14 -52 18 -70 31 -137 3 -16 11 -44 17 -63 7 -19 13 -39 14 -45 25
-99 68 -235 93 -292 37 -85 39 -113 9 -140 -32 -28 -142 -57 -166 -44 -32 17
-49 53 -55 116 -8 69 -12 98 -31 188 -3 12 -14 67 -26 122 -12 55 -23 114 -26
130 -3 17 -7 41 -10 55 -2 14 -6 34 -8 45 -2 11 -4 20 -6 20 -1 0 -3 9 -5 20
-2 11 -6 29 -9 40 -13 45 -58 231 -61 250 -1 11 -3 20 -4 20 -2 0 -5 9 -7 20
-7 29 -7 31 -43 145 -17 58 -35 112 -38 120 -15 37 -11 50 20 74 17 14 35 26
38 26 4 0 17 -19 29 -42z m-1899 11 c39 -20 41 -22 34 -57 -4 -20 -10 -41 -13
-47 -4 -5 -5 -18 -4 -27 2 -10 -2 -18 -8 -18 -6 0 -8 -10 -4 -25 4 -16 2 -25
-6 -25 -8 0 -9 -10 -5 -30 4 -20 3 -30 -5 -30 -8 0 -9 -10 -5 -30 4 -20 3 -30
-5 -30 -7 0 -10 -7 -6 -16 7 -18 -32 -340 -43 -364 -4 -8 -6 -31 -3 -51 2 -20
-1 -40 -7 -43 -6 -4 -8 -26 -4 -56 4 -37 2 -50 -7 -50 -9 0 -11 -14 -5 -56 4
-32 3 -60 -3 -67 -6 -7 -10 -46 -10 -87 0 -41 -1 -115 -3 -163 -4 -79 -7 -91
-28 -108 -24 -20 -95 -27 -105 -10 -3 4 -16 6 -28 4 -14 -3 -34 4 -51 17 -33
26 -36 71 -8 152 20 59 40 169 97 538 34 222 37 237 64 265 59 61 77 162 44
244 -16 40 -15 41 9 63 27 24 67 94 67 115 0 17 4 17 51 -8z m-1074 0 c34 -12
94 -69 87 -81 -3 -4 0 -8 7 -8 6 0 9 -8 6 -20 -3 -11 -1 -20 5 -20 6 0 8 -7 4
-15 -3 -8 -1 -15 5 -15 6 0 7 -4 4 -10 -3 -5 -2 -10 4 -10 5 0 19 -15 30 -34
l21 -33 -20 -99 c-11 -55 -23 -106 -27 -114 -3 -8 -5 -23 -4 -32 1 -10 -2 -18
-7 -18 -5 0 -7 -11 -4 -25 2 -15 0 -25 -7 -25 -7 0 -9 -9 -5 -25 3 -14 2 -25
-2 -25 -5 0 -10 -19 -11 -41 -1 -42 -21 -76 -30 -51 -3 6 -9 10 -14 6 -5 -3
-15 -2 -21 3 -7 4 -21 9 -31 10 -30 5 -71 29 -94 57 -13 14 -27 26 -31 26 -17
0 -51 79 -62 142 -24 152 48 401 130 452 30 19 31 19 67 5z m1481 -43 c11 -18
37 -42 60 -52 l40 -19 -3 -75 c-5 -119 -35 -393 -46 -413 -5 -9 -7 -28 -3 -42
3 -14 3 -33 -2 -42 -4 -10 -9 -36 -10 -58 -2 -22 -6 -62 -9 -90 -3 -27 -7 -68
-8 -90 -1 -22 -6 -46 -10 -53 -5 -7 -6 -23 -4 -35 3 -12 -2 -97 -12 -189 -14
-133 -21 -172 -36 -188 -10 -11 -24 -19 -31 -16 -6 2 -16 0 -22 -6 -8 -8 -15
-8 -25 0 -7 6 -23 9 -35 5 -14 -3 -22 -1 -22 7 0 8 -8 10 -21 7 -13 -4 -28 2
-41 15 -18 18 -20 28 -14 77 5 47 35 215 50 286 31 140 48 234 66 355 11 80
23 156 25 170 6 34 32 286 40 387 7 81 9 85 47 92 3 0 15 -14 26 -33z m-150
-52 c1 -25 -1 -51 -5 -57 -5 -7 -9 -37 -10 -67 -1 -30 -2 -66 -2 -79 -2 -43
-42 -355 -48 -371 -7 -19 -15 -77 -15 -110 0 -14 -4 -31 -10 -37 -6 -7 -7 -20
-4 -29 3 -9 3 -21 -1 -27 -4 -7 -8 -30 -9 -52 -4 -55 -44 -247 -55 -261 -5 -6
-7 -19 -3 -28 4 -9 1 -16 -6 -16 -7 0 -10 -7 -7 -15 4 -8 2 -17 -4 -20 -5 -4
-9 -12 -8 -18 1 -7 -2 -20 -6 -31 -5 -11 -3 -26 4 -38 6 -10 9 -23 6 -27 -10
-16 66 -80 108 -92 23 -6 74 -12 114 -13 82 -1 116 16 145 75 19 39 19 41 53
357 14 130 34 320 46 422 32 294 48 435 49 439 0 3 10 -5 23 -16 12 -11 32
-26 44 -32 25 -13 25 -9 -9 -256 -23 -167 -28 -219 -29 -265 0 -19 -4 -39 -9
-46 -6 -6 -10 -28 -9 -50 0 -88 -48 -540 -60 -564 -5 -8 -6 -30 -3 -48 2 -18
-1 -39 -8 -47 -7 -9 -10 -25 -6 -41 4 -15 2 -32 -5 -40 -6 -7 -8 -21 -5 -30 5
-12 0 -15 -27 -13 -18 2 -38 0 -45 -5 -6 -4 -32 -4 -56 -1 -24 4 -46 3 -49 -2
-6 -10 -429 -9 -446 1 -6 4 -29 5 -51 1 -22 -4 -44 -4 -50 0 -6 4 -35 8 -64
10 -66 4 -218 34 -230 45 -5 5 -14 6 -21 4 -7 -3 -16 -1 -19 4 -3 6 -15 8 -26
5 -11 -3 -20 -1 -20 5 0 6 -9 8 -20 5 -11 -3 -20 -1 -20 3 0 5 -11 10 -25 10
-35 2 -165 46 -165 56 0 4 -7 5 -15 2 -8 -4 -15 -1 -15 5 0 6 -7 8 -15 5 -8
-4 -15 -1 -15 6 0 6 -4 9 -9 6 -8 -5 -145 45 -157 56 -2 2 4 33 12 68 16 67
71 328 150 710 24 118 49 239 56 268 10 50 21 61 43 44 14 -10 17 -79 5 -87
-6 -4 -8 -21 -4 -41 4 -23 2 -34 -6 -34 -8 0 -9 -10 -5 -30 4 -16 3 -30 -2
-30 -5 0 -9 -21 -10 -47 0 -63 -54 -356 -66 -364 -5 -4 -6 -12 -2 -18 4 -7 2
-18 -4 -25 -6 -7 -9 -21 -5 -30 3 -9 2 -16 -2 -16 -5 0 -10 -12 -10 -27 -1
-16 -5 -53 -9 -83 -4 -37 -3 -65 6 -85 7 -16 12 -33 11 -36 -3 -17 103 -49
180 -55 72 -5 87 -3 115 15 51 32 63 67 78 234 33 359 56 604 61 634 l5 32 34
-24 c19 -13 58 -26 86 -30 48 -7 50 -8 45 -34 -3 -14 -15 -89 -27 -166 -12
-77 -25 -141 -29 -143 -4 -1 -4 -16 -2 -32 2 -17 0 -30 -5 -30 -5 0 -8 -13 -5
-30 3 -19 0 -30 -8 -30 -7 0 -10 -7 -6 -16 8 -21 -38 -266 -61 -324 -10 -25
-13 -64 -5 -70 4 -3 14 -18 22 -34 24 -47 63 -68 147 -82 87 -14 136 -7 171
26 47 44 50 57 67 300 9 129 22 307 31 395 15 164 76 581 94 647 l11 37 62 4
c34 2 67 4 72 5 6 1 11 -19 13 -44z m1236 38 c3 -5 7 -19 10 -33 3 -13 14 -68
26 -122 11 -54 23 -112 25 -130 9 -55 12 -72 15 -72 1 0 3 -9 5 -20 2 -11 6
-29 9 -40 10 -35 68 -259 71 -275 2 -8 8 -27 14 -42 6 -16 8 -28 5 -28 -4 0
-1 -7 6 -15 7 -8 9 -15 5 -15 -4 0 -3 -6 2 -12 12 -15 32 -73 39 -114 3 -15 9
-35 15 -46 5 -10 7 -18 3 -18 -3 0 -1 -7 6 -15 7 -8 9 -15 5 -15 -4 0 -1 -7 6
-17 8 -9 12 -17 10 -17 -2 -1 5 -30 16 -66 12 -36 25 -78 29 -95 4 -16 8 -34
10 -40 13 -45 11 -55 -13 -80 -15 -14 -32 -24 -39 -21 -7 3 -14 0 -16 -6 -2
-5 -17 -11 -33 -13 -17 -1 -38 -6 -47 -10 -24 -10 -56 11 -71 48 -12 28 -29
103 -43 190 -2 15 -6 38 -9 52 -3 14 -7 36 -10 50 -8 43 -13 66 -39 183 -14
63 -28 130 -31 150 -3 20 -8 46 -10 57 -2 11 -6 32 -9 48 -7 34 -10 50 -35
162 -26 113 -33 156 -32 175 1 8 2 52 4 97 2 67 6 86 24 106 12 14 19 28 16
31 -4 3 -1 6 5 6 7 0 11 3 11 8 -3 17 2 22 20 22 11 0 22 -4 25 -8z m237 -9
c2 -19 8 -40 20 -68 7 -16 13 -32 14 -35 1 -3 5 -12 8 -20 9 -23 38 -126 43
-157 3 -15 10 -46 16 -68 15 -53 16 -56 22 -82 3 -13 8 -31 11 -40 21 -81 37
-154 41 -188 3 -22 8 -49 11 -60 4 -11 8 -27 9 -35 2 -8 6 -26 9 -40 18 -87
46 -226 51 -258 3 -20 7 -46 9 -57 2 -11 6 -38 10 -60 3 -22 8 -51 11 -65 2
-14 5 -31 6 -39 1 -7 17 -31 37 -51 50 -53 90 -59 197 -30 84 23 93 29 142 95
14 19 4 90 -21 156 -15 37 -28 78 -29 93 -2 14 -7 28 -10 32 -4 3 -4 12 -1 20
3 8 0 14 -7 14 -7 0 -10 6 -7 14 3 7 2 17 -3 22 -12 13 -62 184 -62 211 0 13
-4 26 -9 29 -4 2 -6 11 -2 19 3 8 0 15 -6 15 -7 0 -11 6 -10 13 1 6 -1 19 -4
27 -6 15 -41 152 -51 201 -5 25 -3 27 35 32 25 3 57 18 80 36 l38 31 7 -37 c7
-43 35 -174 64 -308 11 -49 22 -108 26 -130 8 -55 30 -163 55 -267 23 -96 48
-129 109 -145 83 -23 270 47 270 99 0 8 3 18 7 21 11 12 9 71 -4 92 -7 12 -15
32 -17 45 -2 14 -5 26 -7 28 -1 1 -2 5 -4 10 -1 4 -5 14 -8 22 -13 30 -56 162
-55 168 1 4 -4 20 -11 36 -6 16 -9 31 -6 34 2 3 1 10 -4 16 -12 15 -62 188
-56 194 3 3 0 11 -5 18 -6 6 -10 16 -9 20 1 5 -2 20 -8 34 -5 14 -20 67 -33
118 l-24 93 29 23 30 24 51 -162 c29 -88 71 -222 93 -296 23 -74 64 -205 90
-290 27 -85 64 -202 82 -260 18 -58 34 -110 37 -117 2 -7 -38 -33 -97 -63 -56
-27 -101 -47 -101 -43 0 5 -4 3 -8 -4 -10 -16 -162 -84 -173 -77 -5 3 -9 0 -9
-6 0 -7 -6 -10 -12 -8 -7 3 -19 -2 -27 -9 -7 -8 -20 -12 -27 -9 -8 3 -14 1
-14 -5 0 -6 -7 -9 -15 -5 -8 3 -15 1 -15 -4 0 -11 -129 -52 -141 -44 -5 3 -9
0 -9 -7 0 -6 -8 -9 -20 -6 -11 3 -20 1 -20 -5 0 -6 -7 -8 -15 -5 -8 4 -17 2
-20 -4 -4 -5 -12 -9 -18 -8 -7 1 -19 -1 -27 -4 -61 -25 -253 -58 -291 -50 -19
4 -29 1 -29 -7 0 -9 -12 -10 -44 -6 -28 5 -47 3 -51 -4 -5 -7 -30 -9 -76 -4
-47 4 -73 3 -83 -5 -9 -8 -46 -11 -102 -9 l-88 3 -9 40 c-4 22 -10 54 -12 70
-3 17 -7 41 -10 55 -3 14 -7 34 -9 45 -2 11 -4 20 -6 20 -1 0 -3 9 -5 20 -2
11 -15 70 -28 130 -14 61 -30 135 -36 165 -11 55 -16 80 -25 123 -3 12 -17 69
-30 127 -14 58 -28 121 -31 140 -6 42 -11 66 -20 100 -4 14 -8 54 -9 90 -1 51
-8 78 -33 126 l-31 60 56 -1 c48 -2 57 -5 59 -21 3 -30 10 -64 28 -134 9 -36
20 -92 25 -125 6 -33 12 -70 15 -83 4 -21 9 -43 19 -95 2 -12 7 -33 11 -47 4
-14 8 -34 11 -45 2 -11 10 -49 18 -85 16 -74 24 -117 32 -175 3 -21 8 -43 11
-49 3 -5 8 -19 9 -30 11 -67 37 -164 52 -189 27 -46 77 -69 137 -63 120 12
210 61 221 121 3 15 6 30 6 34 3 12 -14 86 -22 96 -10 13 -71 185 -65 185 3 0
-5 24 -16 53 -11 28 -20 52 -19 52 1 0 -7 32 -18 70 -12 39 -24 84 -27 100 -7
33 -12 57 -15 65 -1 3 -3 10 -5 15 -1 6 -3 15 -5 20 -1 6 -3 15 -4 20 -1 6 -5
17 -9 25 -7 17 -57 226 -63 268 -8 51 -11 67 -14 67 -1 0 -4 9 -6 20 -7 38
-13 70 -23 110 -5 22 -12 57 -15 77 l-7 37 63 4 c35 2 69 4 76 5 6 1 12 -1 13
-5z m826 -205 c7 -18 24 -80 38 -138 14 -58 41 -152 60 -210 134 -415 146
-459 129 -500 -10 -22 -19 -30 -29 -26 -8 3 -15 2 -15 -3 0 -4 -17 -13 -39
-19 -64 -20 -121 -13 -121 13 0 7 -4 15 -9 17 -9 3 -39 152 -45 219 -2 14 -6
31 -10 37 -4 7 -5 21 -1 31 3 11 1 22 -4 25 -6 4 -8 13 -4 21 3 9 1 21 -5 28
-5 6 -10 19 -10 27 -1 8 -15 73 -32 144 -16 70 -28 132 -25 136 3 5 1 12 -5
15 -6 4 -8 15 -5 25 3 10 1 21 -5 25 -6 4 -9 14 -6 22 4 9 1 22 -5 29 -6 7 -8
18 -5 23 4 5 2 12 -4 16 -5 3 -10 17 -10 31 0 21 4 24 43 25 23 1 53 5 67 9
41 13 45 11 57 -22z m-3077 -82 c0 -8 -5 -18 -10 -21 -6 -4 -8 -26 -4 -56 5
-36 3 -49 -6 -49 -8 0 -10 -9 -7 -27 6 -28 -30 -464 -40 -493 -3 -8 -7 -46 -9
-85 -4 -109 -8 -129 -27 -158 -20 -31 -51 -34 -136 -16 -83 18 -87 31 -56 207
14 81 40 215 56 297 17 83 39 204 48 270 l17 120 68 7 c37 3 70 9 74 12 11 11
32 6 32 -8z m3694 -998 c27 -38 20 -84 -15 -110 -17 -13 -35 -22 -40 -20 -5 1
-9 -2 -9 -7 0 -12 -118 -84 -137 -84 -7 0 -13 -4 -13 -9 0 -5 -4 -7 -9 -4 -5
4 -11 3 -13 -2 -6 -14 -98 -63 -108 -57 -6 3 -10 1 -10 -5 0 -6 -4 -8 -10 -5
-5 3 -10 1 -10 -5 0 -6 -4 -8 -10 -5 -5 3 -10 1 -10 -5 0 -6 -4 -8 -10 -5 -5
3 -10 2 -10 -3 0 -8 -121 -60 -158 -67 -9 -2 -18 -4 -19 -5 -2 -2 -6 -3 -10
-4 -5 -1 -17 -7 -28 -13 -33 -18 -156 -53 -166 -47 -5 3 -9 0 -9 -7 0 -6 -8
-9 -20 -6 -11 3 -20 1 -20 -5 0 -5 -9 -6 -20 -3 -12 4 -20 2 -20 -5 0 -6 -8
-10 -17 -8 -10 1 -23 -1 -30 -5 -6 -4 -64 -16 -130 -28 -232 -40 -627 -36
-675 7 -21 20 -25 83 -6 102 8 8 61 12 173 12 343 0 639 51 972 169 132 46
419 179 508 234 51 32 70 33 89 5z m-4225 -160 c191 -86 524 -178 771 -213
137 -20 552 -28 685 -14 133 14 200 15 200 4 0 -5 4 -16 9 -23 12 -20 -1 -58
-28 -75 -66 -44 -407 -83 -631 -74 -138 6 -286 22 -315 34 -8 3 -22 5 -32 4
-9 -1 -19 2 -22 8 -3 5 -15 7 -25 4 -10 -3 -22 0 -25 6 -4 5 -13 8 -21 4 -9
-3 -21 0 -29 6 -7 6 -16 8 -19 5 -3 -3 -12 -2 -19 2 -7 4 -19 9 -28 9 -28 2
-150 38 -150 44 0 3 -12 7 -27 8 -15 0 -29 6 -31 12 -2 5 -10 7 -18 4 -8 -3
-14 0 -14 6 0 6 -3 10 -7 10 -5 -1 -10 0 -13 1 -3 1 -13 3 -22 5 -42 8 -88 28
-88 37 0 6 -3 9 -6 5 -8 -8 -64 13 -64 25 0 5 -4 6 -10 3 -5 -3 -10 -1 -10 5
0 6 -4 9 -8 6 -13 -8 -94 33 -124 62 -33 32 -34 47 -8 90 23 38 23 38 129 -10z"/>
<path d="M6297 5330 c-153 -39 -290 -193 -338 -380 -18 -70 -18 -267 0 -340
14 -60 61 -173 73 -178 4 -2 8 -7 8 -11 0 -4 25 -33 55 -64 30 -31 55 -54 55
-50 0 4 7 -2 15 -13 8 -10 15 -15 15 -11 0 4 10 2 23 -5 12 -7 25 -11 30 -10
4 1 7 -2 7 -8 0 -5 6 -7 14 -4 8 3 17 1 20 -4 3 -6 15 -8 26 -5 11 3 20 1 20
-4 0 -6 37 -10 85 -10 48 0 85 4 85 10 0 5 9 7 20 4 11 -3 20 -1 20 4 0 4 7 6
15 3 8 -4 15 -1 15 7 0 7 3 9 6 6 4 -3 16 -1 28 5 11 7 24 11 29 10 4 -1 7 2
7 8 0 11 47 60 58 60 9 0 36 60 35 78 -1 6 4 12 9 12 6 0 8 7 4 15 -3 8 -1 15
3 15 5 0 7 9 4 20 -3 11 -1 20 5 20 17 0 8 102 -10 114 -25 15 -48 0 -48 -33
0 -16 -9 -58 -20 -93 -23 -76 -76 -143 -134 -169 -50 -23 -152 -25 -201 -5
-33 14 -115 90 -115 108 0 4 -4 8 -9 8 -10 0 -27 39 -23 53 1 4 -3 7 -8 7 -5
0 -9 3 -9 8 1 4 0 9 -1 12 -1 3 -4 18 -6 35 -3 16 -10 35 -15 41 -5 6 -7 19
-3 27 3 9 3 21 -1 28 -12 19 -5 353 8 365 3 3 3 12 0 20 -3 8 0 14 6 14 6 0
11 6 11 14 0 19 36 97 57 122 62 74 195 98 269 48 21 -15 48 -36 60 -48 27
-28 74 -124 74 -152 0 -13 4 -25 9 -29 9 -5 40 19 42 33 3 28 10 47 25 70 10
15 17 31 16 35 -3 11 23 58 51 91 29 33 25 61 -7 51 -61 -17 -85 -15 -176 15
-103 35 -224 47 -293 30z"/>
<path d="M2078 5317 c-26 -8 -65 -26 -87 -40 -41 -28 -110 -111 -111 -134 0
-7 -5 -13 -11 -13 -6 0 -8 -9 -4 -20 4 -11 2 -20 -4 -20 -7 0 -11 -23 -11 -55
0 -34 4 -55 11 -55 6 0 9 -9 6 -20 -3 -11 -1 -20 5 -20 6 0 8 -7 4 -15 -3 -8
-1 -15 4 -15 6 0 10 -7 10 -15 0 -8 5 -15 11 -15 6 0 9 -6 6 -14 -7 -17 23
-46 46 -46 9 0 17 -7 17 -15 0 -9 6 -12 15 -9 8 4 15 1 15 -6 0 -6 5 -8 10 -5
6 3 10 2 10 -4 0 -8 46 -24 75 -26 6 0 16 -4 23 -9 7 -4 16 -5 19 -2 3 3 12 1
19 -5 8 -6 20 -9 29 -6 8 4 17 2 21 -4 3 -6 12 -8 20 -5 7 3 16 1 19 -5 4 -5
12 -9 18 -8 7 1 26 -3 42 -10 17 -7 38 -13 48 -14 9 -1 17 -5 17 -9 0 -4 9 -8
20 -8 11 0 20 -3 20 -8 0 -4 10 -12 22 -17 12 -6 26 -19 32 -30 6 -11 15 -23
19 -26 4 -3 9 -17 11 -30 2 -13 7 -32 11 -43 5 -11 3 -26 -3 -37 -7 -10 -9
-25 -6 -34 3 -8 1 -15 -6 -15 -6 0 -8 -4 -5 -10 3 -5 2 -10 -3 -10 -5 0 -12
-9 -15 -19 -6 -25 -89 -67 -150 -76 -61 -9 -163 3 -149 17 8 8 -1 19 -31 38
-47 30 -89 86 -107 143 -11 36 -40 52 -40 22 0 -8 5 -15 10 -15 6 0 10 -15 10
-33 0 -23 8 -40 25 -55 14 -13 23 -27 20 -32 -3 -5 6 -12 20 -16 14 -3 25 -13
25 -21 0 -16 -8 -12 -57 23 -39 30 -74 85 -89 144 -7 29 -17 46 -29 49 -13 2
-16 -1 -12 -13 4 -9 2 -16 -4 -16 -6 0 -9 -7 -5 -15 3 -8 1 -15 -4 -15 -5 0
-7 -7 -4 -15 4 -8 1 -15 -6 -15 -6 0 -8 -4 -5 -10 3 -5 1 -10 -5 -10 -6 0 -8
-4 -5 -10 3 -5 1 -10 -5 -10 -6 0 -8 -4 -5 -10 3 -5 1 -10 -5 -10 -6 0 -8 -4
-5 -10 3 -5 1 -10 -5 -10 -6 0 -9 -4 -6 -9 3 -5 -1 -12 -10 -15 -8 -3 -12 -10
-9 -16 3 -5 1 -10 -5 -10 -6 0 -9 -4 -6 -9 3 -5 -1 -12 -10 -15 -8 -3 -12 -10
-9 -16 3 -5 2 -10 -2 -10 -5 0 -9 -9 -9 -20 0 -11 5 -18 11 -15 5 3 18 8 28
11 9 4 17 9 17 13 0 8 122 7 137 -2 6 -4 18 -4 27 -1 9 3 16 1 16 -6 0 -7 8
-9 20 -5 12 4 20 2 20 -5 0 -7 8 -9 20 -5 12 4 20 2 20 -5 0 -7 8 -10 20 -7
11 3 20 0 20 -5 0 -6 12 -8 30 -5 16 4 32 2 35 -3 8 -13 152 -13 160 0 4 6 15
8 26 5 10 -4 19 -2 19 4 0 6 7 8 15 5 8 -4 15 -1 15 6 0 6 5 8 10 5 6 -3 10
-1 10 5 0 6 5 8 10 5 6 -3 10 -1 10 5 0 6 5 8 10 5 6 -3 13 1 16 9 3 9 12 16
18 16 15 0 56 42 56 57 0 5 8 17 18 27 48 43 55 214 12 300 -47 93 -131 140
-337 191 -81 20 -110 31 -107 40 3 7 -4 18 -15 24 -32 18 -71 82 -71 118 0 24
10 44 34 70 30 33 39 37 93 41 46 3 71 -1 107 -16 25 -12 46 -26 46 -31 0 -6
6 -11 14 -11 7 0 19 -6 26 -14 6 -8 19 -12 27 -9 12 5 15 2 10 -10 -4 -10 -2
-17 4 -17 6 0 9 -7 5 -15 -3 -8 -1 -15 5 -15 6 0 9 -7 5 -15 -3 -8 -2 -15 2
-15 4 0 25 42 47 93 21 50 47 104 57 119 10 14 18 31 18 37 0 6 5 11 10 11 6
0 10 6 10 14 0 11 -8 11 -44 -2 -42 -16 -50 -15 -148 7 -123 29 -264 36 -330
18z m220 -79 c17 -5 32 -14 32 -19 0 -5 5 -9 11 -9 14 0 71 -61 64 -68 -3 -3
-13 5 -22 17 -42 61 -180 80 -263 38 -25 -13 -44 -29 -42 -35 1 -7 -3 -12 -9
-12 -5 0 -7 -4 -4 -10 3 -5 3 -10 -2 -10 -4 0 -8 -24 -8 -52 0 -50 3 -56 48
-100 56 -55 50 -61 -17 -17 -61 40 -79 77 -74 144 5 64 29 97 88 124 69 31
118 34 198 9z"/>
<path d="M3443 5316 c-82 -26 -175 -105 -189 -161 -3 -14 -10 -25 -16 -25 -5
0 -6 -9 -3 -20 4 -11 2 -20 -4 -20 -7 0 -11 -23 -11 -55 0 -34 4 -55 11 -55 6
0 9 -9 6 -20 -3 -11 -1 -20 5 -20 6 0 8 -7 4 -15 -3 -8 -1 -15 5 -15 6 0 9 -6
6 -14 -3 -8 1 -17 10 -20 9 -4 13 -9 9 -13 -10 -10 25 -43 46 -43 10 0 18 -7
18 -15 0 -8 6 -12 14 -9 7 3 20 -2 29 -10 8 -9 24 -17 34 -19 10 -1 24 -6 31
-10 6 -5 17 -5 22 -2 6 3 10 1 10 -6 0 -6 8 -9 20 -6 11 3 23 1 26 -5 3 -5 15
-8 25 -5 10 3 22 1 25 -5 3 -5 12 -7 20 -4 7 3 16 1 20 -5 3 -6 12 -8 20 -5 8
3 14 2 14 -3 0 -8 66 -26 83 -23 4 1 7 -2 7 -8 0 -5 7 -10 17 -10 20 0 93 -73
93 -94 0 -9 4 -16 8 -16 10 0 14 -34 11 -107 -1 -13 -6 -23 -12 -23 -6 0 -8
-3 -5 -6 9 -8 -53 -70 -87 -87 -66 -33 -241 -34 -228 -1 3 8 0 14 -5 14 -26 0
-111 100 -127 150 -9 29 -23 50 -31 50 -16 0 -19 -26 -4 -35 6 -3 10 -17 10
-31 0 -13 5 -24 10 -24 6 0 10 -6 10 -14 0 -8 5 -16 11 -18 5 -2 11 -12 13
-23 2 -12 12 -21 24 -23 12 -2 22 -10 22 -18 0 -8 4 -13 9 -10 12 8 41 -4 41
-16 0 -14 -40 1 -87 34 -53 36 -89 87 -109 156 -10 33 -21 52 -31 52 -9 0 -13
-6 -9 -15 3 -8 1 -15 -5 -15 -6 0 -9 -7 -5 -15 3 -8 2 -15 -2 -15 -4 0 -9 -10
-9 -22 -1 -13 -7 -24 -13 -26 -5 -2 -8 -8 -4 -13 3 -5 0 -9 -6 -9 -6 0 -8 -4
-5 -10 3 -5 1 -10 -6 -10 -7 0 -10 -3 -6 -6 3 -3 -3 -15 -13 -27 -11 -11 -17
-24 -14 -29 3 -4 0 -8 -6 -8 -6 0 -9 -4 -6 -9 3 -5 -1 -12 -10 -15 -8 -3 -12
-10 -9 -16 3 -5 2 -10 -2 -10 -5 0 -9 -9 -9 -20 0 -25 4 -25 35 -1 14 10 31
17 38 14 7 -3 20 0 27 6 11 9 16 9 21 0 4 -6 19 -9 36 -5 18 3 29 1 29 -5 0
-6 9 -9 20 -6 11 3 23 1 26 -5 3 -5 12 -7 20 -4 7 3 16 1 20 -5 3 -5 14 -7 25
-4 11 4 19 2 19 -5 0 -7 8 -10 20 -7 11 3 20 1 20 -5 0 -5 12 -7 29 -3 17 3
32 2 36 -4 9 -15 155 -14 155 0 0 6 9 9 20 6 11 -3 23 -1 26 4 3 5 10 7 15 4
5 -4 9 -1 9 5 0 7 7 10 15 6 8 -3 15 -1 15 5 0 6 5 7 10 4 6 -3 10 -1 10 4 0
6 7 11 15 11 8 0 15 5 15 10 0 6 6 10 13 10 15 0 57 41 57 55 0 5 8 18 18 29
26 30 42 93 42 167 0 50 -6 78 -29 125 -47 100 -119 143 -325 195 -90 23 -123
35 -120 44 3 8 -4 18 -15 24 -32 18 -71 82 -71 118 0 24 10 44 33 70 29 31 41
37 89 41 67 5 111 -8 158 -48 19 -16 38 -31 43 -31 4 -1 13 -2 20 -3 6 -1 11
-7 10 -14 -2 -7 2 -12 8 -12 6 0 9 -7 5 -15 -3 -8 -1 -15 5 -15 6 0 9 -7 5
-15 -3 -8 -2 -15 3 -15 4 0 27 47 51 105 25 58 47 105 51 105 4 0 10 11 13 25
4 14 11 25 16 25 6 0 10 7 10 16 0 9 -6 13 -12 10 -72 -29 -86 -29 -207 -2
-131 29 -240 33 -308 12z m222 -78 c53 -24 123 -83 112 -95 -4 -3 -17 6 -29
20 -52 59 -175 76 -258 34 -25 -12 -43 -26 -42 -31 2 -5 -2 -12 -8 -16 -7 -4
-13 -33 -14 -66 -1 -57 0 -60 45 -106 25 -27 43 -48 40 -48 -20 0 -102 63
-115 89 -20 39 -20 104 0 147 35 74 179 113 269 72z"/>
<path d="M4815 5317 c-62 -21 -99 -43 -142 -84 -60 -58 -78 -104 -78 -198 0
-69 4 -88 30 -139 17 -33 39 -64 50 -70 11 -6 25 -18 32 -26 7 -8 13 -11 13
-7 0 5 15 -1 33 -12 19 -11 37 -18 41 -14 4 4 11 2 15 -5 4 -7 23 -14 42 -16
19 -2 42 -6 51 -10 9 -4 22 -5 28 -1 5 3 10 1 10 -5 0 -7 8 -9 19 -5 11 3 22
1 25 -4 4 -6 13 -8 21 -4 8 3 15 1 15 -5 0 -9 56 -27 74 -23 5 1 13 -4 17 -11
5 -7 13 -13 18 -13 17 0 71 -45 71 -60 0 -8 4 -15 9 -15 17 0 33 -95 23 -134
-27 -97 -98 -140 -234 -141 -87 0 -115 8 -88 25 13 8 12 10 -2 10 -32 0 -114
92 -132 148 -10 30 -24 52 -32 52 -8 0 -14 -5 -14 -12 0 -19 33 -102 43 -109
5 -4 14 -17 21 -30 6 -13 16 -24 21 -24 19 0 75 -27 75 -36 0 -14 -16 -11 -59
12 -67 35 -118 102 -140 187 -7 23 -18 42 -25 42 -7 0 -18 -19 -25 -42 -14
-48 -91 -201 -103 -206 -5 -2 -6 -8 -2 -13 3 -5 0 -9 -5 -9 -6 0 -11 -9 -11
-20 0 -24 4 -25 35 -4 27 17 155 27 155 12 0 -5 9 -6 20 -3 12 4 20 2 20 -5 0
-7 8 -9 20 -5 12 4 20 2 20 -5 0 -7 8 -9 20 -5 12 4 20 2 20 -5 0 -6 10 -8 25
-4 16 4 25 2 25 -6 0 -8 10 -9 29 -5 17 3 32 2 36 -4 8 -15 155 -14 155 0 0 6
9 8 20 4 12 -4 20 -2 20 5 0 7 7 10 15 6 8 -3 15 -2 15 3 0 9 33 23 58 25 8 1
18 9 23 19 6 9 14 15 18 12 9 -5 37 23 57 58 38 64 48 98 52 169 4 71 1 84
-27 143 -49 101 -119 142 -339 199 -143 36 -213 71 -243 119 -25 42 -25 121 0
163 45 74 191 101 283 52 48 -25 102 -77 92 -87 -3 -3 -16 6 -27 21 -31 37
-89 58 -161 58 -50 0 -70 -5 -103 -27 -23 -14 -46 -37 -52 -50 -16 -36 -14
-118 4 -133 8 -7 15 -19 15 -26 0 -8 7 -14 15 -14 8 0 15 -4 15 -8 0 -12 51
-34 59 -27 3 4 -6 15 -21 26 -36 27 -68 80 -68 115 0 34 36 89 68 103 57 27
170 1 226 -51 11 -10 27 -18 37 -18 11 0 20 -15 29 -45 7 -25 16 -45 19 -45 4
0 19 30 35 68 48 112 88 192 97 192 5 0 9 7 9 16 0 12 -5 14 -17 9 -63 -27
-88 -28 -183 -5 -116 28 -269 35 -325 17z"/>
<path d="M6375 5223 c-80 -17 -133 -77 -168 -187 -19 -61 -22 -93 -22 -231 1
-120 5 -176 18 -225 33 -122 97 -222 152 -236 14 -3 25 -11 25 -17 0 -6 3 -7
7 -4 3 4 -17 30 -46 57 -29 28 -50 50 -47 50 4 0 -5 18 -19 40 -14 22 -22 40
-19 40 4 0 1 7 -6 15 -7 8 -9 15 -5 15 4 0 2 6 -4 13 -6 8 -8 17 -5 20 3 3 2
12 -2 19 -12 18 -13 40 -15 209 -1 81 1 152 5 158 4 6 4 20 1 31 -4 11 -2 20
3 20 8 0 18 32 22 68 1 4 9 16 19 27 10 11 21 28 24 38 4 9 13 17 22 17 8 0
15 4 15 9 0 4 19 14 43 20 34 10 51 9 90 -3 27 -8 56 -21 66 -30 10 -9 22 -12
30 -7 10 7 3 16 -29 36 -63 40 -103 50 -155 38z"/>
<path d="M1910 4795 c0 -8 4 -15 9 -15 5 0 26 -16 47 -35 21 -20 44 -33 51
-31 7 3 13 1 13 -5 0 -6 7 -9 15 -5 8 3 15 1 15 -5 0 -6 7 -9 15 -6 8 4 17 2
21 -4 3 -6 12 -8 20 -5 8 3 14 1 14 -5 0 -6 7 -9 15 -6 8 4 17 2 21 -4 3 -6
12 -8 20 -5 7 3 16 0 20 -5 3 -6 15 -9 25 -6 11 3 19 1 19 -5 0 -6 9 -8 20 -5
11 3 20 1 20 -5 0 -6 7 -8 15 -5 8 4 17 2 21 -4 3 -6 12 -8 20 -5 8 3 14 2 14
-3 0 -5 11 -12 25 -15 14 -4 25 -11 25 -16 0 -6 5 -10 12 -10 6 0 22 -10 35
-22 34 -32 28 -4 -8 37 -34 38 -89 59 -294 110 -118 30 -154 44 -198 81 -33
28 -47 30 -47 9z"/>
<path d="M3280 4800 c0 -24 93 -96 110 -85 5 3 10 1 10 -5 0 -7 7 -10 15 -6 8
3 15 1 15 -5 0 -6 6 -9 14 -6 8 3 16 2 18 -3 2 -5 17 -11 33 -13 17 -2 37 -7
44 -11 7 -4 15 -5 18 -2 3 3 12 1 19 -5 8 -6 21 -9 29 -5 8 3 15 1 15 -3 0 -5
9 -7 20 -4 12 3 20 0 20 -7 0 -7 6 -10 14 -7 7 3 17 2 22 -3 5 -4 27 -13 49
-20 22 -7 42 -16 45 -19 20 -23 60 -53 60 -44 0 20 -49 70 -84 87 -19 9 -103
34 -188 56 -180 47 -197 54 -245 91 -38 31 -53 36 -53 19z"/>
<path d="M4654 4798 c3 -7 9 -21 12 -30 4 -10 13 -18 20 -18 8 0 14 -4 14 -10
0 -5 9 -10 20 -10 11 0 20 -4 20 -9 0 -10 58 -27 74 -22 5 1 12 -3 16 -9 4 -6
21 -12 38 -12 18 -1 32 -5 32 -10 0 -5 9 -7 19 -3 11 3 22 1 26 -5 3 -6 11 -8
16 -4 5 3 16 1 24 -6 7 -6 27 -12 44 -12 17 -1 31 -4 31 -8 0 -4 19 -13 43
-20 23 -7 59 -26 80 -42 27 -22 35 -25 30 -12 -23 60 -78 87 -282 139 -169 42
-206 56 -237 90 -24 26 -50 34 -40 13z"/>
<path d="M2605 4761 c-3 -6 1 -11 9 -11 9 0 16 -7 16 -15 0 -8 4 -15 8 -15 12
0 33 -50 27 -61 -4 -5 -1 -9 5 -9 7 0 9 -8 5 -20 -4 -11 -2 -20 4 -20 14 0 14
-97 1 -105 -6 -4 -8 -15 -5 -26 4 -10 2 -19 -4 -19 -6 0 -8 -7 -5 -15 4 -8 1
-15 -6 -15 -6 0 -8 -4 -5 -10 3 -5 1 -10 -5 -10 -6 0 -9 -4 -5 -9 3 -6 -3 -14
-12 -20 -10 -6 -14 -11 -9 -11 21 0 -103 -105 -153 -129 -87 -39 -228 -42
-381 -6 -129 31 -238 38 -263 16 -24 -19 -21 -32 6 -27 12 3 22 5 22 6 0 0 30
2 68 3 37 1 67 -2 67 -7 0 -4 9 -6 20 -3 11 3 23 1 26 -5 3 -5 12 -7 20 -4 7
3 16 1 20 -5 3 -5 14 -7 25 -4 11 4 19 2 19 -5 0 -7 8 -9 20 -5 12 4 20 2 20
-5 0 -8 10 -9 29 -5 17 3 32 2 36 -4 8 -14 122 -14 130 -1 3 6 17 7 31 4 15
-4 24 -2 24 6 0 7 7 10 15 7 8 -4 17 -2 20 4 4 5 11 7 16 4 5 -4 9 -2 9 4 0 6
6 8 13 5 7 -2 22 4 34 15 11 11 23 17 27 14 3 -3 8 2 12 11 4 10 17 21 30 26
28 11 92 109 111 170 20 63 12 183 -14 235 -26 49 -68 91 -78 76z"/>
<path d="M3965 4760 c3 -5 13 -10 21 -10 8 0 14 -7 14 -15 0 -8 4 -15 9 -15
11 0 26 -39 23 -57 -2 -7 2 -13 7 -13 6 0 8 -7 5 -15 -4 -8 -1 -22 6 -30 8 -9
10 -30 6 -57 -6 -47 -13 -82 -16 -85 -2 -2 -4 -6 -5 -10 -10 -33 -31 -73 -37
-73 -4 0 -8 -5 -8 -12 0 -21 -91 -97 -149 -126 -48 -23 -71 -27 -163 -30 -90
-4 -123 0 -220 23 -126 31 -235 38 -261 16 -22 -18 -21 -27 3 -27 11 0 20 3
20 6 0 3 32 5 70 5 39 0 70 -4 70 -9 0 -4 9 -6 20 -3 11 3 20 1 20 -5 0 -6 9
-8 20 -5 11 3 22 1 25 -4 3 -4 12 -6 19 -3 8 3 17 1 20 -4 3 -6 15 -8 26 -5
11 3 20 0 20 -6 0 -6 11 -8 29 -5 16 4 32 1 35 -5 9 -14 126 -15 126 0 0 7 11
8 30 4 20 -4 30 -3 30 5 0 7 7 10 15 6 8 -3 15 -1 15 5 0 6 7 9 15 5 8 -3 15
-1 15 4 0 6 3 9 8 8 14 -4 52 13 52 23 0 6 4 8 9 4 6 -3 15 4 21 15 6 11 15
18 19 16 20 -13 104 118 122 189 15 59 7 171 -16 215 -22 44 -64 90 -82 90 -8
0 -11 -4 -8 -10z"/>
<path d="M5349 4748 c43 -40 66 -105 66 -193 0 -68 -4 -89 -29 -139 -38 -78
-93 -131 -174 -169 -60 -29 -79 -32 -173 -35 -87 -3 -125 1 -210 21 -147 36
-189 40 -237 27 -43 -11 -58 -36 -22 -36 11 0 20 3 20 6 0 8 123 5 137 -3 6
-4 18 -4 27 -1 9 3 16 1 16 -6 0 -7 8 -9 20 -5 12 4 20 2 20 -5 0 -7 8 -9 20
-5 12 4 20 2 20 -5 0 -7 8 -9 19 -5 11 3 22 1 26 -4 3 -6 19 -8 34 -5 16 4 32
1 35 -5 9 -15 126 -15 126 0 0 7 10 9 24 5 14 -3 28 -1 31 5 4 6 13 8 21 5 8
-3 14 -1 14 5 0 5 6 9 13 8 28 -3 44 2 65 21 12 12 22 17 22 13 0 -4 6 1 13
11 7 9 23 22 36 29 24 12 36 29 88 122 25 45 28 60 28 145 0 105 -19 158 -71
199 -35 28 -54 27 -25 -1z"/>
<path d="M6795 4553 c-26 -157 -56 -220 -136 -283 -72 -56 -138 -74 -264 -68
-81 4 -112 10 -159 31 -33 15 -56 21 -53 14 2 -6 10 -11 16 -9 6 1 11 -3 11
-9 0 -5 5 -7 10 -4 6 3 10 1 10 -5 0 -6 5 -8 10 -5 6 3 10 1 10 -5 0 -6 5 -8
10 -5 6 3 10 2 10 -4 0 -6 7 -8 15 -5 8 4 15 1 15 -5 0 -6 7 -8 15 -5 8 4 15
1 15 -6 0 -8 10 -9 30 -5 19 4 30 3 30 -4 0 -14 87 -14 96 0 3 6 17 8 29 5 13
-3 27 -1 30 5 4 6 13 8 21 5 8 -3 14 -1 14 4 0 6 11 10 24 10 13 0 29 7 36 15
7 8 16 12 21 9 5 -3 9 1 9 9 0 7 11 20 25 27 13 7 27 21 31 32 3 10 10 18 15
18 5 0 9 7 9 15 0 8 5 15 11 15 5 0 7 5 4 10 -3 6 -1 10 5 10 6 0 9 4 5 9 -3
5 1 15 8 23 8 7 12 19 9 26 -2 6 1 12 6 12 6 0 8 9 5 20 -3 12 0 20 7 20 7 0
9 8 5 21 -4 13 -2 25 5 29 14 8 4 70 -10 70 -5 0 -12 -17 -15 -37z"/>
<path d="M2859 4446 c-24 -13 -43 -29 -41 -35 1 -6 -1 -11 -6 -11 -4 0 -7 -18
-7 -40 0 -22 4 -40 8 -40 5 0 7 -7 3 -15 -3 -9 0 -15 9 -15 8 0 15 -7 15 -16
0 -10 6 -14 15 -10 8 3 15 1 15 -5 0 -6 5 -7 11 -3 6 3 15 0 20 -7 6 -11 11
-11 20 -2 6 6 18 9 25 6 8 -3 14 0 14 6 0 6 7 11 15 11 16 0 45 60 45 92 0 27
-27 76 -48 86 -42 22 -70 22 -113 -2z"/>
<path d="M4255 4462 c-25 -6 -76 -48 -68 -56 4 -3 2 -6 -3 -6 -5 0 -9 -18 -9
-40 0 -22 4 -40 9 -40 5 0 7 -3 4 -6 -10 -9 42 -54 62 -54 10 0 21 -6 23 -12
4 -10 7 -10 15 0 5 7 16 10 25 6 10 -3 17 -1 17 5 0 6 7 11 15 11 16 0 45 60
45 92 0 27 -27 76 -48 86 -25 14 -64 20 -87 14z"/>
<path d="M5623 4461 c-12 -3 -35 -18 -52 -34 -45 -40 -44 -95 3 -142 19 -18
37 -31 40 -28 3 3 13 0 22 -8 13 -10 18 -11 21 -2 2 7 11 9 19 6 8 -3 14 0 14
6 0 6 8 11 19 11 16 0 35 31 32 53 -1 4 4 7 9 7 6 0 10 14 10 30 0 17 -5 30
-11 30 -5 0 -7 5 -4 10 3 6 1 10 -5 10 -6 0 -9 4 -6 9 13 21 -71 52 -111 42z"/>
<path d="M4518 3368 c-49 -10 -60 -21 -33 -32 11 -4 15 -22 15 -70 l0 -64 -34
10 c-18 6 -49 8 -68 4 -33 -6 -102 -57 -104 -77 -1 -5 -2 -10 -4 -11 -7 -9 -6
-98 2 -98 5 0 6 -4 3 -10 -10 -17 53 -69 92 -76 25 -5 52 -2 79 8 36 13 41 13
37 1 -5 -12 3 -13 43 -7 27 4 58 10 69 14 18 7 18 8 -7 15 l-28 7 0 199 c0
109 -3 198 -7 198 -5 -1 -29 -6 -55 -11z m-25 -198 c5 0 5 -4 2 -10 -3 -5 -3
-10 2 -10 12 0 10 -154 -2 -162 -5 -4 -24 -8 -42 -8 -23 0 -38 8 -58 32 -24
28 -27 39 -23 85 6 69 29 93 78 82 19 -5 39 -9 43 -9z"/>
<path d="M3433 3308 c-37 -22 -44 -48 -13 -48 18 0 19 -5 13 -45 -4 -30 -2
-45 5 -45 7 0 9 -17 5 -49 -3 -30 -1 -51 6 -55 7 -5 9 -27 5 -64 -4 -41 -2
-65 9 -85 l15 -28 16 22 c13 20 18 21 41 11 43 -20 108 -15 146 11 115 76 74
256 -58 257 -34 0 -83 -18 -95 -34 -7 -10 -13 21 -23 117 -7 64 -17 69 -72 35z
m187 -175 c30 -20 40 -34 34 -45 -3 -4 -2 -8 3 -8 4 0 8 -23 8 -50 0 -28 -4
-50 -8 -50 -5 0 -6 -4 -2 -10 6 -10 -45 -40 -69 -40 -29 0 -53 47 -60 117 -5
61 -4 70 15 86 27 21 48 22 79 0z"/>
<path d="M3090 3282 c0 -5 -18 -17 -39 -27 -26 -11 -38 -22 -34 -31 3 -9 13
-12 23 -9 21 7 32 -17 24 -50 -3 -12 -1 -26 5 -29 6 -4 8 -20 4 -36 -4 -20 -1
-30 7 -30 8 0 9 -10 5 -29 -3 -16 -2 -32 3 -35 5 -3 7 -17 4 -31 -2 -14 0 -31
6 -38 5 -6 9 -23 7 -37 -1 -20 -9 -27 -37 -34 -20 -5 -42 -7 -49 -4 -9 4 -20
47 -33 127 -10 67 -22 124 -27 127 -5 3 -24 -6 -41 -19 -18 -14 -44 -28 -58
-33 l-25 -8 30 -5 c25 -5 31 -11 33 -39 2 -17 8 -32 13 -32 7 0 8 -12 4 -30
-4 -19 -3 -30 4 -30 18 0 0 -64 -23 -82 -11 -10 -16 -18 -10 -18 8 0 289 42
362 55 13 2 55 7 93 11 38 4 69 11 69 15 0 5 -9 9 -19 9 -28 0 -31 9 -42 113
-11 112 -19 157 -28 157 -3 0 -19 -11 -35 -25 -16 -14 -35 -25 -41 -25 -7 0
-18 -7 -25 -15 -11 -13 -8 -15 18 -15 25 0 29 -3 25 -20 -3 -11 0 -26 6 -34 6
-7 8 -27 5 -45 -4 -19 -2 -31 4 -31 6 0 10 -13 9 -30 -1 -20 -10 -33 -27 -41
-25 -13 -59 -13 -72 -1 -3 4 -18 84 -32 177 -32 212 -33 215 -51 215 -8 0 -15
-4 -15 -8z"/>
<path d="M4682 3233 c1 -5 -3 -19 -9 -33 -23 -55 -25 -70 -10 -70 8 0 22 9 31
19 10 11 24 17 32 14 8 -3 14 0 14 6 0 14 37 15 45 1 4 -6 12 -7 18 -3 6 4 3
-5 -8 -19 -11 -14 -33 -43 -50 -64 -16 -22 -47 -56 -67 -78 -21 -21 -38 -44
-38 -51 0 -9 36 -14 126 -19 69 -4 128 -5 131 -2 12 11 14 84 3 91 -10 6 -21
-4 -51 -48 -7 -11 -109 -23 -109 -14 0 3 10 17 23 30 12 13 36 41 52 61 17 21
47 57 67 80 21 22 36 46 35 51 -2 6 -50 12 -108 16 -57 3 -100 6 -95 7 10 2
-13 32 -25 32 -5 0 -8 -3 -7 -7z"/>
<path d="M3885 3198 c-28 -10 -95 -68 -80 -68 4 0 2 -6 -4 -14 -18 -21 5 -30
40 -16 19 8 32 23 37 42 4 16 11 29 16 28 5 -1 12 4 16 11 11 18 40 3 40 -21
0 -11 5 -20 10 -20 6 0 10 -9 10 -19 0 -14 -21 -30 -75 -57 -55 -29 -78 -46
-87 -68 -9 -23 -9 -31 0 -34 7 -2 10 -8 7 -13 -17 -27 114 -22 144 5 15 14 20
14 37 1 28 -21 71 -19 84 4 14 27 13 41 -5 41 -8 0 -15 -5 -15 -12 0 -7 -3 -8
-9 -3 -5 6 -11 50 -13 98 -3 79 -6 91 -27 108 -26 21 -78 24 -126 7z"/>
<path d="M5009 3166 c-55 -38 -76 -126 -46 -186 35 -69 145 -92 221 -46 47 28
34 42 -23 25 -56 -17 -95 1 -115 52 -29 72 -29 72 85 64 l102 -7 -7 29 c-4 15
-20 41 -36 57 -24 25 -39 30 -87 33 -49 4 -63 1 -94 -21z"/>
<path d="M5317 3152 c-45 -23 -47 -26 -32 -42 14 -16 15 -31 8 -97 -7 -67 -11
-79 -30 -88 -37 -16 -27 -22 45 -29 37 -4 74 -8 82 -9 8 -1 17 3 20 8 3 6 -5
11 -17 13 -20 3 -23 9 -23 50 1 52 14 129 24 139 3 4 12 1 18 -5 16 -16 53
-15 68 3 29 36 -24 79 -69 55 -18 -9 -21 -8 -21 10 0 25 -12 24 -73 -8z"/>
<path d="M5531 3104 c-27 -35 -27 -85 0 -110 12 -10 40 -26 62 -35 46 -18 63
-38 54 -63 -17 -43 -75 -27 -108 29 -27 46 -49 46 -49 0 0 -45 30 -65 108 -72
62 -6 64 -5 110 51 15 18 16 43 2 51 -6 4 -8 10 -5 15 7 11 -41 44 -87 59 -41
13 -57 43 -37 67 22 26 62 13 84 -28 27 -50 55 -51 55 -2 0 31 -4 37 -35 50
-19 7 -57 14 -84 14 -42 0 -53 -4 -70 -26z"/>
<path d="M5841 3058 c-49 -25 -75 -68 -41 -68 30 0 72 19 65 30 -3 5 -1 10 5
10 6 0 8 4 5 10 -7 12 39 24 60 16 19 -7 21 -79 3 -94 -7 -5 -34 -13 -61 -17
-86 -13 -141 -70 -103 -108 24 -23 90 -31 124 -15 26 13 29 13 45 -9 21 -28
64 -31 83 -5 19 24 17 34 -5 27 -11 -3 -22 -1 -26 5 -3 5 -1 10 6 10 7 0 9 10
6 30 -4 19 -2 30 4 30 6 0 9 9 6 20 -3 11 -1 23 4 26 5 3 9 22 9 42 0 49 -25
70 -93 78 -42 4 -60 1 -96 -18z"/>
<path d="M2033 3041 c-87 -27 -124 -59 -58 -48 21 3 33 2 30 -4 -4 -5 -1 -9 5
-9 6 0 8 -4 5 -10 -3 -5 -1 -10 5 -10 7 0 9 -8 5 -20 -4 -11 -2 -20 4 -20 6 0
8 -7 5 -15 -4 -8 -1 -15 5 -15 6 0 8 -7 5 -15 -4 -8 -1 -15 6 -15 7 0 9 -8 5
-20 -4 -11 -2 -20 4 -20 6 0 8 -7 5 -15 -4 -8 -1 -15 6 -15 7 0 10 -7 6 -15
-3 -8 -1 -15 3 -15 5 0 7 -9 4 -20 -3 -11 0 -20 6 -20 5 0 8 -7 5 -15 -4 -8
-1 -15 5 -15 6 0 10 -6 9 -12 -4 -16 -38 -48 -52 -48 -7 0 -6 -4 1 -11 8 -8
27 -5 69 10 33 11 78 25 102 31 47 12 48 30 2 30 -29 0 -30 2 -70 133 -23 72
-46 145 -52 161 -11 26 -9 31 15 50 55 44 29 46 -90 7z"/>
<path d="M2682 3057 c-31 -10 -96 -63 -97 -79 0 -3 -3 -9 -7 -13 -4 -4 -4 -13
-1 -21 3 -8 0 -21 -7 -29 -10 -12 -10 -15 0 -15 7 0 10 -8 7 -20 -3 -11 -1
-20 5 -20 5 0 6 -4 3 -10 -3 -5 -1 -10 4 -10 6 0 10 -5 9 -12 -4 -18 62 -47
110 -48 23 0 58 6 77 14 34 15 79 72 69 88 -9 14 -34 9 -34 -6 0 -21 -39 -46
-71 -46 -37 0 -86 44 -100 89 -9 30 -8 44 4 74 21 50 56 58 94 23 34 -32 67
-31 71 3 7 47 -56 64 -136 38z"/>
<path d="M6190 3025 c-14 -8 -40 -14 -57 -15 -34 0 -44 -14 -18 -24 19 -7 19
-35 -3 -121 -15 -58 -22 -71 -40 -73 -39 -6 -24 -18 41 -32 78 -18 79 -18 85
-2 2 6 -2 12 -10 12 -8 0 -13 12 -14 30 -1 17 3 30 8 30 5 0 7 9 3 19 -3 11
-1 22 5 26 6 4 9 13 6 21 -3 7 -1 16 5 20 6 3 8 12 5 20 -3 9 8 17 35 25 36
11 42 11 61 -9 l22 -21 -20 -88 c-15 -72 -23 -88 -39 -91 -44 -8 -33 -20 36
-36 51 -13 74 -15 82 -7 8 8 6 11 -5 11 -22 0 -33 19 -20 32 6 6 8 17 5 24 -3
8 0 14 7 14 7 0 10 8 7 20 -3 11 -1 20 5 20 5 0 6 9 3 20 -4 11 -2 20 4 20 6
0 11 15 11 34 0 67 -83 114 -154 87 -30 -12 -50 -6 -27 8 9 6 10 14 5 24 -8
13 -12 14 -34 2z"/>
<path d="M2406 2982 c-70 -20 -92 -23 -107 -14 -30 19 -34 15 -30 -34 2 -32
-1 -49 -10 -55 -11 -7 -9 -9 6 -8 12 0 29 13 40 32 14 22 32 35 58 41 39 10
61 1 37 -14 -8 -6 -12 -10 -7 -10 4 0 1 -10 -8 -23 -8 -13 -12 -27 -8 -30 3
-4 1 -7 -6 -7 -7 0 -10 -4 -6 -9 3 -5 1 -12 -5 -16 -6 -4 -8 -11 -5 -16 4 -5
1 -9 -5 -9 -6 0 -8 -4 -5 -10 3 -5 1 -10 -5 -10 -6 0 -8 -4 -5 -10 3 -5 2 -10
-3 -10 -23 0 -37 -80 -13 -80 3 0 57 12 119 27 l113 27 -3 46 c-2 34 -7 46
-21 48 -10 2 -16 0 -15 -5 1 -4 -3 -17 -9 -28 -6 -11 -12 -24 -13 -30 -2 -12
-90 -48 -90 -38 0 4 23 63 51 130 28 68 49 127 47 131 -1 5 -43 -2 -92 -16z"/>
<path d="M6513 2895 c-17 -7 -36 -23 -43 -34 -10 -19 -8 -21 22 -21 33 1 64
17 66 35 1 6 17 10 35 10 31 0 32 -1 31 -43 0 -23 -3 -44 -5 -46 -2 -2 -37 -9
-77 -14 -44 -6 -82 -18 -93 -28 -27 -24 -24 -60 6 -80 26 -17 90 -23 117 -10
12 5 18 2 23 -14 9 -28 48 -42 80 -30 29 11 34 40 7 40 -19 0 -23 24 -8 48 4
6 4 17 1 22 -3 6 -1 10 5 10 7 0 10 7 6 15 -3 8 -1 15 5 15 6 0 9 7 5 15 -3 8
-1 15 4 15 11 0 13 40 4 65 -15 39 -128 58 -191 30z"/>
</g>
</svg>
