<?xml version="1.0" standalone="no"?>
<!DOCTYPE svg PUBLIC "-//W3C//DTD SVG 20010904//EN"
 "http://www.w3.org/TR/2001/REC-SVG-20010904/DTD/svg10.dtd">
<svg version="1.0" xmlns="http://www.w3.org/2000/svg"
 width="872.000000pt" height="985.000000pt" viewBox="0 0 872.000000 985.000000"
 preserveAspectRatio="xMidYMid meet">
<g transform="translate(0.000000,985.000000) scale(0.100000,-0.100000)"
fill="#000000" stroke="none">
<path d="M3704 8758 c3 -13 6 -40 6 -60 0 -70 51 -88 108 -39 21 18 41 27 53
24 12 -4 19 0 19 10 0 29 145 38 205 13 50 -21 105 -65 99 -80 -3 -7 4 -23 16
-36 23 -27 23 -27 9 -68 -7 -20 -15 -29 -25 -25 -9 3 -14 -2 -14 -13 -1 -18
-69 -74 -91 -74 -15 0 -6 -23 12 -28 8 -3 11 -1 7 3 -7 8 32 44 70 64 34 18
62 70 62 115 0 52 -30 98 -91 137 -42 27 -63 33 -123 37 -87 5 -131 -7 -204
-56 -62 -41 -85 -37 -90 19 -4 54 -12 79 -23 79 -7 0 -9 -9 -5 -22z"/>
<path d="M6848 7497 c-42 -88 -141 -166 -323 -253 -74 -36 -135 -66 -135 -68
0 -4 39 -119 47 -136 3 -8 7 -18 8 -22 2 -5 4 -10 5 -13 1 -3 4 -9 5 -15 1 -5
3 -11 5 -12 1 -2 3 -12 4 -23 2 -11 18 -66 36 -122 33 -98 36 -103 62 -103 15
0 28 5 28 10 0 6 -11 10 -24 10 -19 0 -26 7 -31 33 -4 17 -21 71 -37 120 -16
48 -26 92 -22 98 3 6 -1 16 -9 22 -15 13 -48 119 -46 153 0 10 3 13 6 7 6 -17
23 -17 23 0 0 15 188 103 213 99 11 -1 17 3 14 10 -3 11 51 58 66 58 14 0 104
101 119 134 21 44 21 46 10 46 -5 0 -15 -15 -24 -33z"/>
<path d="M2327 6919 c7 -7 8 -20 3 -33 -4 -12 -18 -71 -30 -131 -28 -146 -27
-142 -57 -150 -74 -18 -123 -94 -123 -188 0 -49 4 -61 32 -92 19 -22 69 -55
127 -84 92 -47 240 -105 247 -98 2 2 -65 32 -149 68 -114 48 -162 74 -194 105
-42 40 -47 54 -43 119 5 77 68 155 126 155 19 0 24 15 52 153 37 175 38 187
15 187 -13 0 -14 -3 -6 -11z"/>
<path d="M5280 6220 c-36 -4 -144 -8 -241 -9 -121 -1 -179 -5 -187 -13 -19
-19 -15 -82 6 -102 30 -26 175 -39 377 -33 183 6 409 37 430 58 7 8 -1 9 -30
4 -159 -28 -244 -37 -420 -41 -249 -6 -344 6 -359 47 -19 54 -15 55 206 63
111 4 237 13 278 21 81 14 46 17 -60 5z"/>
<path d="M4020 6200 c0 -14 -6 -32 -13 -41 -25 -32 -245 -67 -477 -76 -149 -5
-224 -1 -430 23 -37 5 -52 3 -45 -4 29 -30 398 -50 595 -33 158 14 322 45 356
68 28 18 42 59 25 76 -8 8 -11 5 -11 -13z"/>
<path d="M3505 3674 c-77 -7 -176 -18 -220 -24 -44 -7 -93 -13 -110 -15 -16
-2 -68 -11 -115 -19 -47 -9 -157 -27 -245 -42 -88 -14 -185 -32 -215 -39 -30
-8 -73 -18 -95 -24 -22 -5 -112 -26 -200 -46 -88 -20 -169 -40 -180 -45 -11
-6 -51 -18 -90 -29 -38 -11 -63 -20 -53 -20 14 -1 240 54 386 94 53 14 411 89
507 106 190 34 334 52 753 95 29 3 50 10 47 15 -4 5 -12 8 -18 8 -7 -1 -75 -7
-152 -15z"/>
<path d="M5095 3670 c22 -5 153 -20 290 -35 237 -25 429 -52 540 -76 28 -6
124 -26 215 -44 91 -19 192 -41 225 -49 76 -18 279 -72 325 -86 19 -5 44 -10
55 -9 40 1 -164 61 -340 100 -99 22 -202 46 -230 54 -27 8 -90 22 -140 30 -96
17 -125 22 -335 55 -74 11 -142 23 -151 25 -35 11 -369 45 -429 44 -60 -1 -62
-2 -25 -9z"/>
<path d="M1795 3330 c-3 -5 -83 -34 -179 -64 -95 -31 -181 -65 -190 -75 -14
-15 -16 -51 -16 -273 l0 -255 -87 -36 c-125 -50 -277 -107 -286 -107 -5 0 -45
-17 -90 -38 -45 -21 -116 -53 -157 -71 -112 -49 -581 -289 -692 -355 -93 -55
-116 -76 -83 -76 8 0 15 5 15 10 0 6 4 10 8 10 4 0 60 30 123 66 230 132 734
375 974 471 22 8 49 19 60 24 11 5 67 26 125 48 l105 39 5 265 c3 146 7 268
10 270 6 6 95 37 278 98 68 22 121 43 118 47 -10 10 -35 11 -41 2z"/>
<path d="M6910 3330 c-29 -8 -27 -9 70 -39 116 -35 315 -104 328 -114 9 -7 12
-74 12 -272 l0 -263 63 -22 c217 -80 663 -274 822 -358 206 -108 337 -179 418
-225 53 -31 97 -50 97 -44 0 7 -8 17 -17 23 -37 23 -312 173 -398 218 -149 78
-588 284 -641 301 -27 9 -111 39 -186 67 l-138 50 0 263 c0 261 0 263 -22 277
-13 8 -103 40 -200 72 -97 32 -178 61 -180 65 -2 4 -14 4 -28 1z"/>
<path d="M1380 2549 c-12 -8 -10 -9 8 -4 l22 6 0 -289 0 -289 161 -53 c88 -28
162 -50 165 -47 2 2 -64 27 -148 54 l-153 51 -3 291 c-2 269 -4 291 -20 291
-9 0 -24 -5 -32 -11z"/>
<path d="M7326 2553 c-3 -4 -6 -135 -6 -293 l0 -287 -116 -37 c-64 -21 -114
-39 -112 -41 3 -4 209 55 238 69 13 5 15 45 12 288 -3 205 0 283 8 288 8 5 7
9 -3 13 -8 3 -18 3 -21 0z"/>
<path d="M3475 2455 c-413 -53 -675 -94 -830 -130 -33 -8 -121 -28 -195 -44
-75 -16 -148 -34 -163 -40 l-27 -10 -2 -263 -3 -262 -230 -66 c-222 -64 -436
-132 -540 -171 -401 -150 -565 -220 -852 -359 -336 -164 -619 -320 -596 -327
14 -5 63 19 123 61 58 39 137 81 390 206 113 56 231 115 263 132 32 16 82 38
110 48 29 9 81 31 117 48 87 40 356 145 452 176 43 14 86 29 96 35 29 15 371
119 532 161 l145 38 3 266 2 265 43 12 c23 6 71 19 107 30 36 10 142 33 235
50 94 17 195 37 225 44 60 15 358 57 535 74 182 19 200 22 184 32 -8 5 -16 8
-19 8 -3 -1 -50 -7 -105 -14z"/>
<path d="M5133 2459 c-22 -8 11 -13 226 -34 165 -17 353 -44 491 -71 255 -50
513 -104 568 -119 l62 -17 0 -264 c0 -144 4 -265 8 -268 5 -3 64 -19 132 -36
67 -17 130 -35 139 -40 9 -5 59 -21 111 -36 214 -60 612 -202 795 -284 22 -10
69 -30 105 -44 36 -15 97 -42 135 -60 39 -19 124 -60 190 -91 159 -75 228
-111 296 -151 31 -19 61 -34 65 -34 5 0 59 -29 119 -65 107 -63 185 -93 95
-36 -60 37 -416 228 -505 270 -256 122 -421 197 -495 226 -461 180 -668 251
-1010 348 l-155 44 -5 266 c-3 146 -7 267 -10 270 -5 4 -191 46 -365 83 -44 9
-107 23 -140 30 -50 11 -233 40 -510 80 -27 4 -57 8 -65 10 -64 12 -262 29
-277 23z"/>
<path d="M0 1962 c0 -6 83 -50 346 -182 71 -36 172 -92 192 -106 2 -1 -30 -53
-70 -116 -41 -62 -96 -149 -123 -193 -26 -44 -67 -109 -90 -145 -53 -81 -200
-321 -232 -378 -13 -24 -23 -48 -20 -55 2 -6 56 77 120 183 129 215 183 302
335 541 80 127 100 165 91 175 -6 8 -15 14 -19 14 -4 0 -69 34 -145 75 -76 41
-144 75 -150 75 -7 0 -29 11 -49 25 -67 46 -186 101 -186 87z"/>
<path d="M8644 1927 c-34 -17 -115 -60 -180 -94 -249 -129 -284 -148 -284
-160 0 -7 42 -78 93 -158 50 -81 116 -186 146 -233 29 -48 83 -134 120 -192
36 -57 71 -112 76 -122 89 -153 100 -170 103 -151 2 11 -5 34 -15 51 -34 58
-144 237 -197 322 -30 47 -80 128 -111 180 -32 52 -89 141 -126 197 l-68 103
22 14 c29 20 222 121 375 197 67 34 122 65 122 70 0 14 -11 11 -76 -24z"/>
<path d="M7090 1611 c0 -4 61 -29 135 -55 136 -47 430 -162 538 -210 31 -14
57 -22 57 -18 0 4 4 1 9 -6 4 -7 18 -14 29 -15 12 -1 22 -5 22 -9 0 -4 3 -7 8
-6 4 1 39 -14 78 -35 40 -20 74 -33 78 -30 3 4 6 1 6 -5 0 -7 3 -11 8 -10 8 2
254 -120 359 -180 40 -22 75 -37 78 -32 3 4 -25 25 -62 46 -38 20 -71 42 -74
47 -4 5 -11 7 -17 3 -6 -3 -16 -1 -24 6 -7 7 -34 23 -58 35 -135 66 -340 163
-344 163 -3 0 -40 16 -81 35 -95 45 -294 127 -405 167 -47 17 -89 35 -94 39
-6 5 -16 9 -24 9 -8 0 -56 16 -108 35 -98 37 -114 40 -114 26z"/>
</g>
</svg>
